<?xml version="1.0" standalone="no"?>
<!DOCTYPE svg PUBLIC "-//W3C//DTD SVG 1.1//EN" "http://www.w3.org/Graphics/SVG/1.1/DTD/svg11.dtd" >
<svg xmlns="http://www.w3.org/2000/svg" xmlns:xlink="http://www.w3.org/1999/xlink" version="1.1">
<metadata></metadata>
<defs>
<font id="open_sansbold" horiz-adv-x="1169" >
<font-face units-per-em="0" ascent="0" descent="0" />
<missing-glyph horiz-adv-x="532" />
<glyph unicode="ff" horiz-adv-x="1585" d="M0 0v0v0v0v0v0v0v0v0v0v0v0v0v0v0v0v0v0v0zM0 0v0v0v0v0v0v0v0v0v0v0v0v0v0v0v0v0v0v0z" />
<glyph unicode="&#xfb01;" horiz-adv-x="1417" d="M0 0v0v0v0v0v0v0v0v0v0v0v0v0v0v0v0v0v0v0zM0 0v0v0v0v0v0zM0 0v0v0v0v0z" />
<glyph unicode="&#xfb02;" horiz-adv-x="1417" d="M0 0v0v0v0v0v0v0v0v0v0v0v0v0v0v0v0v0v0v0zM0 0v0v0v0v0z" />
<glyph unicode="&#xfb03;" horiz-adv-x="2208" d="M0 0v0v0v0v0v0v0v0v0v0v0v0v0v0v0v0v0v0v0zM0 0v0v0v0v0v0v0v0v0v0v0v0v0v0v0v0v0v0v0zM0 0v0v0v0v0v0zM0 0v0v0v0v0z" />
<glyph unicode="&#xfb04;" horiz-adv-x="2208" d="M0 0v0v0v0v0v0v0v0v0v0v0v0v0v0v0v0v0v0v0zM0 0v0v0v0v0v0v0v0v0v0v0v0v0v0v0v0v0v0v0zM0 0v0v0v0v0z" />
<glyph unicode="&#xd;" horiz-adv-x="1044" />
<glyph unicode=" "  horiz-adv-x="532" />
<glyph unicode="&#x09;" horiz-adv-x="532" />
<glyph unicode="&#xa0;" horiz-adv-x="532" />
<glyph unicode="!" horiz-adv-x="586" d="M0 0v0v0v0v0zM0 0v0v0v0v0v0v0v0v0z" />
<glyph unicode="&#x22;" horiz-adv-x="967" d="M0 0v0v0v0v0zM0 0v0v0v0v0z" />
<glyph unicode="#" horiz-adv-x="1323" d="M0 0v0v0v0v0v0v0v0v0v0v0v0v0v0v0v0v0v0v0v0v0v0v0v0v0v0v0v0v0zM0 0v0v0v0v0z" />
<glyph unicode="$" d="M0 0v0v0v0v0v0v0v0v0v0v0v0v0v0v0v0v0v0v0v0v0v0v0v0v0v0zM0 0v0v0v0v0zM0 0v0v0v0v0z" />
<glyph unicode="%" horiz-adv-x="1845" d="M0 0v0v0v0v0v0v0zM0 0v0v0v0v0v0v0v0zM0 0v0v0v0v0zM0 0v0v0v0v0v0v0zM0 0v0v0v0v0v0v0v0z" />
<glyph unicode="&#x26;" horiz-adv-x="1536" d="M0 0v0v0v0v0v0v0v0v0v0v0v0v0v0v0v0v0v0v0v0v0v0zM0 0v0v0v0v0v0v0zM0 0v0v0v0v0v0v0v0z" />
<glyph unicode="'" horiz-adv-x="545" d="M0 0v0v0v0v0z" />
<glyph unicode="(" horiz-adv-x="694" d="M0 0v0v0v0v0v0v0v0v0v0v0z" />
<glyph unicode=")" horiz-adv-x="694" d="M0 0v0v0v0v0v0v0v0v0v0v0z" />
<glyph unicode="*" horiz-adv-x="1116" d="M0 0v0v0v0v0v0v0v0v0v0v0v0v0v0v0v0z" />
<glyph unicode="+" d="M0 0v0v0v0v0v0v0v0v0v0v0v0v0z" />
<glyph unicode="," horiz-adv-x="594" d="M0 0v0v0v0v0v0z" />
<glyph unicode="-" horiz-adv-x="659" d="M0 0v0v0v0v0z" />
<glyph unicode="." horiz-adv-x="584" d="M0 0v0v0v0v0v0v0v0v0z" />
<glyph unicode="/" horiz-adv-x="846" d="M0 0v0v0v0v0z" />
<glyph unicode="0" d="M0 0v0v0v0v0v0v0v0v0zM0 0v0v0v0v0v0v0v0v0z" />
<glyph unicode="1" d="M0 0v0v0v0v0v0v0v0v0v0v0z" />
<glyph unicode="2" d="M0 0v0v0v0v0v0v0v0v0v0v0v0v0v0v0v0v0v0v0v0v0v0v0v0v0z" />
<glyph unicode="3" d="M0 0v0v0v0v0v0v0v0v0v0v0v0v0v0v0v0v0v0v0v0v0v0v0v0v0v0v0v0z" />
<glyph unicode="4" d="M0 0v0v0v0v0v0v0v0v0v0v0v0zM0 0v0v0v0v0v0v0v0z" />
<glyph unicode="5" d="M0 0v0v0v0v0v0v0v0v0v0v0v0v0v0v0v0v0v0v0v0v0z" />
<glyph unicode="6" d="M0 0v0v0v0v0v0v0v0v0v0v0v0v0v0v0v0v0v0zM0 0v0v0v0v0v0v0v0v0z" />
<glyph unicode="7" d="M0 0v0v0v0v0v0v0v0z" />
<glyph unicode="8" d="M0 0v0v0v0v0v0v0v0v0v0v0v0v0v0v0v0v0zM0 0v0v0v0v0v0v0v0zM0 0v0v0v0v0v0v0v0v0z" />
<glyph unicode="9" d="M0 0v0v0v0v0v0v0v0v0v0v0v0v0v0v0v0v0v0v0zM0 0v0v0v0v0v0v0v0v0z" />
<glyph unicode=":" horiz-adv-x="584" d="M0 0v0v0v0v0v0v0v0v0zM0 0v0v0v0v0v0v0v0v0z" />
<glyph unicode=";" horiz-adv-x="594" d="M0 0v0v0v0v0v0zM0 0v0v0v0v0v0v0v0v0z" />
<glyph unicode="&#x3c;" d="M0 0v0v0v0v0v0v0v0z" />
<glyph unicode="=" d="M0 0v0v0v0v0zM0 0v0v0v0v0z" />
<glyph unicode="&#x3e;" d="M0 0v0v0v0v0v0v0v0z" />
<glyph unicode="?" horiz-adv-x="977" d="M0 0v0v0v0v0v0v0v0v0v0v0v0v0v0v0v0v0v0v0zM0 0v0v0v0v0v0v0v0v0z" />
<glyph unicode="@" horiz-adv-x="1837" d="M0 0v0v0v0v0v0v0v0v0v0v0v0v0v0v0v0v0v0v0v0v0v0v0v0v0v0v0v0v0v0v0v0v0v0v0v0v0v0zM0 0v0v0v0v0v0v0v0z" />
<glyph unicode="A" horiz-adv-x="1413" d="M0 0v0v0v0v0v0v0v0v0zM0 0v0v0v0v0z" />
<glyph unicode="B" horiz-adv-x="1376" d="M0 0v0v0v0v0v0v0v0v0v0v0v0v0zM0 0v0v0v0v0v0v0v0zM0 0v0v0v0v0v0v0z" />
<glyph unicode="C" horiz-adv-x="1305" d="M0 0v0v0v0v0v0v0v0v0v0v0v0v0v0v0v0z" />
<glyph unicode="D" horiz-adv-x="1516" d="M0 0v0v0v0v0v0v0v0zM0 0v0v0v0v0v0z" />
<glyph unicode="E" horiz-adv-x="1147" d="M0 0v0v0v0v0v0v0v0v0v0v0v0v0z" />
<glyph unicode="F" horiz-adv-x="1124" d="M0 0v0v0v0v0v0v0v0v0v0v0z" />
<glyph unicode="G" horiz-adv-x="1483" d="M0 0v0v0v0v0v0v0v0v0v0v0v0v0v0v0v0v0v0v0v0z" />
<glyph unicode="H" horiz-adv-x="1567" d="M0 0v0v0v0v0v0v0v0v0v0v0v0v0z" />
<glyph unicode="I" horiz-adv-x="678" d="M0 0v0v0v0v0z" />
<glyph unicode="J" horiz-adv-x="678" d="M0 0v0v0v0v0v0v0v0v0v0v0z" />
<glyph unicode="K" horiz-adv-x="1360" d="M0 0v0v0v0v0v0v0v0v0v0v0v0v0v0z" />
<glyph unicode="L" horiz-adv-x="1157" d="M0 0v0v0v0v0v0v0z" />
<glyph unicode="M" horiz-adv-x="1931" d="M0 0v0v0v0v0v0v0v0v0v0v0v0v0v0v0v0v0v0v0v0z" />
<glyph unicode="N" horiz-adv-x="1665" d="M0 0v0v0v0v0v0v0v0v0v0v0v0v0v0v0z" />
<glyph unicode="O" horiz-adv-x="1630" d="M0 0v0v0v0v0v0v0v0v0zM0 0v0v0v0v0v0v0z" />
<glyph unicode="P" horiz-adv-x="1286" d="M0 0v0v0v0v0v0v0v0zM0 0v0v0v0v0v0v0v0v0v0z" />
<glyph unicode="Q" horiz-adv-x="1630" d="M0 0v0v0v0v0v0v0v0v0v0v0v0v0zM0 0v0v0v0v0v0v0z" />
<glyph unicode="R" horiz-adv-x="1352" d="M0 0v0v0v0v0v0v0v0zM0 0v0v0v0v0v0v0v0v0v0v0v0v0z" />
<glyph unicode="S" horiz-adv-x="1128" d="M0 0v0v0v0v0v0v0v0v0v0v0v0v0v0v0v0v0v0v0v0v0v0v0v0v0v0v0v0v0z" />
<glyph unicode="T" horiz-adv-x="1186" d="M0 0v0v0v0v0v0v0v0v0z" />
<glyph unicode="U" horiz-adv-x="1548" d="M0 0v0v0v0v0v0v0v0v0v0v0v0v0v0v0v0z" />
<glyph unicode="V" horiz-adv-x="1331" d="M0 0v0v0v0v0v0v0v0v0v0v0z" />
<glyph unicode="W" horiz-adv-x="1980" d="M0 0v0v0v0v0v0v0v0v0v0v0v0v0v0v0v0v0v0v0v0v0v0v0v0v0z" />
<glyph unicode="X" horiz-adv-x="1366" d="M0 0v0v0v0v0v0v0v0v0v0v0v0v0z" />
<glyph unicode="Y" horiz-adv-x="1278" d="M0 0v0v0v0v0v0v0v0v0v0z" />
<glyph unicode="Z" horiz-adv-x="1186" d="M0 0v0v0v0v0v0v0v0v0v0v0z" />
<glyph unicode="[" horiz-adv-x="678" d="M0 0v0v0v0v0v0v0v0v0z" />
<glyph unicode="\" horiz-adv-x="846" d="M0 0v0v0v0v0z" />
<glyph unicode="]" horiz-adv-x="678" d="M0 0v0v0v0v0v0v0v0v0z" />
<glyph unicode="^" horiz-adv-x="1090" d="M0 0v0v0v0v0v0v0v0z" />
<glyph unicode="_" horiz-adv-x="842" d="M0 0v0v0v0v0z" />
<glyph unicode="`" horiz-adv-x="1243" d="M0 0v0v0v0v0v0v0v0z" />
<glyph unicode="a" horiz-adv-x="1237" d="M0 0v0v0v0v0v0v0v0v0v0v0v0v0v0v0v0v0v0v0zM0 0v0v0v0v0v0v0v0z" />
<glyph unicode="b" horiz-adv-x="1296" d="M0 0v0v0v0v0v0v0v0v0v0v0v0v0v0v0zM0 0v0v0v0v0v0v0v0v0v0z" />
<glyph unicode="c" horiz-adv-x="1053" d="M0 0v0v0v0v0v0v0v0v0v0v0v0v0v0v0z" />
<glyph unicode="d" horiz-adv-x="1296" d="M0 0v0v0v0v0v0v0v0v0v0v0v0v0v0v0zM0 0v0v0v0v0v0v0v0v0v0z" />
<glyph unicode="e" horiz-adv-x="1210" d="M0 0v0v0v0v0v0zM0 0v0v0v0v0v0v0v0v0v0v0v0v0v0v0v0z" />
<glyph unicode="f" horiz-adv-x="793" d="M0 0v0v0v0v0v0v0v0v0v0v0v0v0v0v0v0v0v0v0z" />
<glyph unicode="g" horiz-adv-x="1157" d="M0 0v0v0v0v0v0v0v0v0v0v0v0v0v0v0v0v0v0v0v0v0v0v0v0v0v0v0v0v0v0zM0 0v0v0v0v0v0v0v0v0v0zM0 0v0v0v0v0v0v0z" />
<glyph unicode="h" horiz-adv-x="1346" d="M0 0v0v0v0v0v0v0v0v0v0v0v0v0v0v0v0v0v0z" />
<glyph unicode="i" horiz-adv-x="625" d="M0 0v0v0v0v0v0zM0 0v0v0v0v0z" />
<glyph unicode="j" horiz-adv-x="625" d="M0 0v0v0v0v0v0v0v0v0v0v0zM0 0v0v0v0v0v0z" />
<glyph unicode="k" horiz-adv-x="1270" d="M0 0v0v0v0v0v0v0v0v0v0v0v0v0v0v0v0z" />
<glyph unicode="l" horiz-adv-x="625" d="M0 0v0v0v0v0z" />
<glyph unicode="m" horiz-adv-x="2011" d="M0 0v0v0v0v0v0v0v0v0v0v0v0v0v0v0v0v0v0v0v0v0v0v0v0v0v0v0v0v0z" />
<glyph unicode="n" horiz-adv-x="1346" d="M0 0v0v0v0v0v0v0v0v0v0v0v0v0v0v0v0v0v0z" />
<glyph unicode="o" horiz-adv-x="1268" d="M0 0v0v0v0v0v0v0v0v0zM0 0v0v0v0v0v0v0v0v0v0v0z" />
<glyph unicode="p" horiz-adv-x="1296" d="M0 0v0v0v0v0v0v0v0v0v0v0v0v0v0v0v0zM0 0v0v0v0v0v0v0v0v0z" />
<glyph unicode="q" horiz-adv-x="1296" d="M0 0v0v0v0v0v0v0v0v0zM0 0v0v0v0v0v0v0v0v0v0v0v0v0v0v0v0v0z" />
<glyph unicode="r" horiz-adv-x="930" d="M0 0v0v0v0v0v0v0v0v0v0v0v0v0v0z" />
<glyph unicode="s" horiz-adv-x="1018" d="M0 0v0v0v0v0v0v0v0v0v0v0v0v0v0v0v0v0v0v0v0v0v0v0v0v0v0v0z" />
<glyph unicode="t" horiz-adv-x="889" d="M0 0v0v0v0v0v0v0v0v0v0v0v0v0v0v0v0v0v0v0z" />
<glyph unicode="u" horiz-adv-x="1346" d="M0 0v0v0v0v0v0v0v0v0v0v0v0v0v0v0v0v0v0z" />
<glyph unicode="v" horiz-adv-x="1165" d="M0 0v0v0v0v0v0v0v0v0v0v0z" />
<glyph unicode="w" horiz-adv-x="1753" d="M0 0v0v0v0v0v0v0v0v0v0v0v0v0v0v0v0v0v0v0v0v0v0v0v0v0v0v0z" />
<glyph unicode="x" horiz-adv-x="1184" d="M0 0v0v0v0v0v0v0v0v0v0v0v0v0z" />
<glyph unicode="y" horiz-adv-x="1165" d="M0 0v0v0v0v0v0v0v0v0v0v0v0v0v0v0v0v0v0z" />
<glyph unicode="z" horiz-adv-x="999" d="M0 0v0v0v0v0v0v0v0v0v0v0z" />
<glyph unicode="{" horiz-adv-x="807" d="M0 0v0v0v0v0v0v0v0v0v0v0v0v0v0v0v0v0v0v0v0v0v0v0v0v0z" />
<glyph unicode="|" horiz-adv-x="1128" d="M0 0v0v0v0v0z" />
<glyph unicode="}" horiz-adv-x="807" d="M0 0v0v0v0v0v0v0v0v0v0v0v0v0v0v0v0v0v0v0v0v0v0v0v0v0v0v0v0z" />
<glyph unicode="~" d="M0 0v0v0v0v0v0v0v0v0v0v0v0v0v0v0z" />
<glyph unicode="&#xa1;" horiz-adv-x="586" d="M0 0v0v0v0v0zM0 0v0v0v0v0v0v0v0v0z" />
<glyph unicode="&#xa2;" d="M0 0v0v0v0v0v0v0v0v0v0v0v0v0v0v0v0v0v0v0v0v0z" />
<glyph unicode="&#xa3;" d="M0 0v0v0v0v0v0v0v0v0v0v0v0v0v0v0v0v0v0v0v0v0v0v0v0v0z" />
<glyph unicode="&#xa4;" d="M0 0v0v0v0v0v0v0v0v0v0v0v0v0v0v0v0v0v0v0v0v0zM0 0v0v0v0v0v0v0v0v0z" />
<glyph unicode="&#xa5;" d="M0 0v0v0v0v0v0v0v0v0v0v0v0v0v0v0v0v0v0v0v0v0v0v0v0z" />
<glyph unicode="&#xa6;" horiz-adv-x="1128" d="M0 0v0v0v0v0zM0 0v0v0v0v0z" />
<glyph unicode="&#xa7;" horiz-adv-x="995" d="M0 0v0v0v0v0v0v0v0v0v0v0v0v0v0v0v0v0v0v0v0v0v0v0v0v0v0v0v0v0v0v0zM0 0v0v0v0v0v0v0v0z" />
<glyph unicode="&#xa8;" horiz-adv-x="1243" d="M0 0v0v0v0v0v0v0v0v0zM0 0v0v0v0v0v0v0v0v0z" />
<glyph unicode="&#xa9;" horiz-adv-x="1704" d="M0 0v0v0v0v0v0v0v0v0v0v0v0v0v0v0zM0 0v0v0v0v0v0v0v0v0v0v0v0v0zM0 0v0v0v0v0v0v0v0v0v0v0v0v0z" />
<glyph unicode="&#xaa;" horiz-adv-x="784" d="M0 0v0v0v0v0v0v0v0v0v0v0v0v0v0v0v0v0v0zM0 0v0v0v0v0v0v0v0z" />
<glyph unicode="&#xab;" horiz-adv-x="1260" d="M0 0v0v0v0v0v0v0v0zM0 0v0v0v0v0v0v0v0z" />
<glyph unicode="&#xac;" d="M0 0v0v0v0v0v0v0z" />
<glyph unicode="&#xad;" horiz-adv-x="659" d="M0 0v0v0v0v0z" />
<glyph unicode="&#xae;" horiz-adv-x="1704" d="M0 0v0v0v0v0v0v0v0v0v0v0v0zM0 0v0v0v0v0v0v0v0zM0 0v0v0v0v0v0v0v0v0v0v0v0v0zM0 0v0v0v0v0v0v0v0v0v0v0v0v0z" />
<glyph unicode="&#xaf;" horiz-adv-x="1024" d="M0 0v0v0v0v0z" />
<glyph unicode="&#xb0;" horiz-adv-x="877" d="M0 0v0v0v0v0v0v0v0v0v0v0v0zM0 0v0v0v0v0v0v0v0v0z" />
<glyph unicode="&#xb1;" d="M0 0v0v0v0v0v0v0v0v0v0v0v0v0zM0 0v0v0v0v0z" />
<glyph unicode="&#xb2;" horiz-adv-x="776" d="M0 0v0v0v0v0v0v0v0v0v0v0v0v0v0v0v0v0v0z" />
<glyph unicode="&#xb3;" horiz-adv-x="776" d="M0 0v0v0v0v0v0v0v0v0v0v0v0v0v0v0v0v0v0v0v0v0v0v0v0v0v0v0z" />
<glyph unicode="&#xb4;" horiz-adv-x="1243" d="M0 0v0v0v0v0v0v0v0z" />
<glyph unicode="&#xb5;" horiz-adv-x="1352" d="M0 0v0v0v0v0v0v0v0v0v0v0v0v0v0v0v0v0v0v0v0v0v0z" />
<glyph unicode="&#xb6;" horiz-adv-x="1341" d="M0 0v0v0v0v0v0v0v0v0v0v0v0v0v0z" />
<glyph unicode="&#xb7;" horiz-adv-x="584" d="M0 0v0v0v0v0v0v0v0v0z" />
<glyph unicode="&#xb8;" horiz-adv-x="420" d="M0 0v0v0v0v0v0v0v0v0v0v0v0v0v0z" />
<glyph unicode="&#xb9;" horiz-adv-x="776" d="M0 0v0v0v0v0v0v0v0v0v0v0z" />
<glyph unicode="&#xba;" horiz-adv-x="795" d="M0 0v0v0v0v0v0v0v0v0zM0 0v0v0v0v0v0v0v0v0z" />
<glyph unicode="&#xbb;" horiz-adv-x="1260" d="M0 0v0v0v0v0v0v0v0zM0 0v0v0v0v0v0v0v0z" />
<glyph unicode="&#xbc;" horiz-adv-x="1804" d="M0 0v0v0v0v0v0v0v0v0v0v0zM0 0v0v0v0v0zM0 0v0v0v0v0v0v0v0v0v0v0v0zM0 0v0v0v0v0v0v0z" />
<glyph unicode="&#xbd;" horiz-adv-x="1804" d="M0 0v0v0v0v0v0v0v0v0v0v0zM0 0v0v0v0v0zM0 0v0v0v0v0v0v0v0v0v0v0v0v0v0v0v0v0v0z" />
<glyph unicode="&#xbe;" horiz-adv-x="1804" d="M0 0v0v0v0v0v0v0v0v0v0v0v0v0v0v0v0v0v0v0v0v0v0v0v0v0v0v0zM0 0v0v0v0v0zM0 0v0v0v0v0v0v0v0v0v0v0v0zM0 0v0v0v0v0v0v0z" />
<glyph unicode="&#xbf;" horiz-adv-x="977" d="M0 0v0v0v0v0v0v0v0v0v0v0v0v0v0v0v0v0v0v0v0v0zM0 0v0v0v0v0v0v0v0v0z" />
<glyph unicode="&#xc0;" horiz-adv-x="1413" d="M0 0v0v0v0v0v0v0v0v0zM0 0v0v0v0v0zM0 0v0v0v0v0v0v0v0z" />
<glyph unicode="&#xc1;" horiz-adv-x="1413" d="M0 0v0v0v0v0v0v0v0v0zM0 0v0v0v0v0zM0 0v0v0v0v0v0v0v0z" />
<glyph unicode="&#xc2;" horiz-adv-x="1413" d="M0 0v0v0v0v0v0v0v0v0zM0 0v0v0v0v0zM0 0v0v0v0v0v0v0v0v0v0v0z" />
<glyph unicode="&#xc3;" horiz-adv-x="1413" d="M0 0v0v0v0v0v0v0v0v0zM0 0v0v0v0v0zM0 0v0v0v0v0v0v0v0v0v0v0v0v0v0v0v0v0v0v0z" />
<glyph unicode="&#xc4;" horiz-adv-x="1413" d="M0 0v0v0v0v0v0v0v0v0zM0 0v0v0v0v0zM0 0v0v0v0v0v0v0v0v0zM0 0v0v0v0v0v0v0v0v0z" />
<glyph unicode="&#xc5;" horiz-adv-x="1413" d="M0 0v0v0v0v0v0v0v0v0zM0 0v0v0v0v0zM0 0v0v0v0v0v0v0v0v0zM0 0v0v0v0v0v0v0v0v0z" />
<glyph unicode="&#xc6;" horiz-adv-x="1950" d="M0 0v0v0v0v0v0v0v0v0v0v0v0v0v0v0v0v0zM0 0v0v0v0v0z" />
<glyph unicode="&#xc7;" horiz-adv-x="1305" d="M0 0v0v0v0v0v0v0v0v0v0v0v0v0v0v0v0zM0 0v0v0v0v0v0v0v0v0v0v0v0v0v0z" />
<glyph unicode="&#xc8;" horiz-adv-x="1147" d="M0 0v0v0v0v0v0v0v0v0v0v0v0v0zM0 0v0v0v0v0v0v0v0z" />
<glyph unicode="&#xc9;" horiz-adv-x="1147" d="M0 0v0v0v0v0v0v0v0v0v0v0v0v0zM0 0v0v0v0v0v0v0v0z" />
<glyph unicode="&#xca;" horiz-adv-x="1147" d="M0 0v0v0v0v0v0v0v0v0v0v0v0v0zM0 0v0v0v0v0v0v0v0v0v0v0z" />
<glyph unicode="&#xcb;" horiz-adv-x="1147" d="M0 0v0v0v0v0v0v0v0v0v0v0v0v0zM0 0v0v0v0v0v0v0v0v0zM0 0v0v0v0v0v0v0v0v0z" />
<glyph unicode="&#xcc;" horiz-adv-x="678" d="M0 0v0v0v0v0zM0 0v0v0v0v0v0v0v0z" />
<glyph unicode="&#xcd;" horiz-adv-x="678" d="M0 0v0v0v0v0zM0 0v0v0v0v0v0v0v0z" />
<glyph unicode="&#xce;" horiz-adv-x="678" d="M0 0v0v0v0v0zM0 0v0v0v0v0v0v0v0v0v0v0z" />
<glyph unicode="&#xcf;" horiz-adv-x="678" d="M0 0v0v0v0v0zM0 0v0v0v0v0v0v0v0v0zM0 0v0v0v0v0v0v0v0v0z" />
<glyph unicode="&#xd0;" horiz-adv-x="1516" d="M0 0v0v0v0v0v0v0v0v0v0v0v0zM0 0v0v0v0v0v0v0v0v0v0v0z" />
<glyph unicode="&#xd1;" horiz-adv-x="1665" d="M0 0v0v0v0v0v0v0v0v0v0v0v0v0v0v0zM0 0v0v0v0v0v0v0v0v0v0v0v0v0v0v0v0v0v0v0z" />
<glyph unicode="&#xd2;" horiz-adv-x="1630" d="M0 0v0v0v0v0v0v0v0v0zM0 0v0v0v0v0v0v0zM0 0v0v0v0v0v0v0v0z" />
<glyph unicode="&#xd3;" horiz-adv-x="1630" d="M0 0v0v0v0v0v0v0v0v0zM0 0v0v0v0v0v0v0zM0 0v0v0v0v0v0v0v0z" />
<glyph unicode="&#xd4;" horiz-adv-x="1630" d="M0 0v0v0v0v0v0v0v0v0zM0 0v0v0v0v0v0v0zM0 0v0v0v0v0v0v0v0v0v0v0z" />
<glyph unicode="&#xd5;" horiz-adv-x="1630" d="M0 0v0v0v0v0v0v0v0v0zM0 0v0v0v0v0v0v0zM0 0v0v0v0v0v0v0v0v0v0v0v0v0v0v0v0v0v0v0z" />
<glyph unicode="&#xd6;" horiz-adv-x="1630" d="M0 0v0v0v0v0v0v0v0v0zM0 0v0v0v0v0v0v0zM0 0v0v0v0v0v0v0v0v0zM0 0v0v0v0v0v0v0v0v0z" />
<glyph unicode="&#xd7;" d="M0 0v0v0v0v0v0v0v0v0v0v0v0v0z" />
<glyph unicode="&#xd8;" horiz-adv-x="1630" d="M0 0v0v0v0v0v0v0v0v0v0v0v0v0v0v0zM0 0v0v0v0v0v0zM0 0v0v0v0v0z" />
<glyph unicode="&#xd9;" horiz-adv-x="1548" d="M0 0v0v0v0v0v0v0v0v0v0v0v0v0v0v0v0zM0 0v0v0v0v0v0v0v0z" />
<glyph unicode="&#xda;" horiz-adv-x="1548" d="M0 0v0v0v0v0v0v0v0v0v0v0v0v0v0v0v0zM0 0v0v0v0v0v0v0v0z" />
<glyph unicode="&#xdb;" horiz-adv-x="1548" d="M0 0v0v0v0v0v0v0v0v0v0v0v0v0v0v0v0zM0 0v0v0v0v0v0v0v0v0v0v0z" />
<glyph unicode="&#xdc;" horiz-adv-x="1548" d="M0 0v0v0v0v0v0v0v0v0v0v0v0v0v0v0v0zM0 0v0v0v0v0v0v0v0v0zM0 0v0v0v0v0v0v0v0v0z" />
<glyph unicode="&#xdd;" horiz-adv-x="1278" d="M0 0v0v0v0v0v0v0v0v0v0zM0 0v0v0v0v0v0v0v0z" />
<glyph unicode="&#xde;" horiz-adv-x="1286" d="M0 0v0v0v0v0v0v0v0v0v0v0v0zM0 0v0v0v0v0v0v0v0z" />
<glyph unicode="&#xdf;" horiz-adv-x="1456" d="M0 0v0v0v0v0v0v0v0v0v0v0v0v0v0v0v0v0v0v0v0v0v0v0v0v0v0v0v0v0v0v0v0v0v0v0v0v0v0v0v0z" />
<glyph unicode="&#xe0;" horiz-adv-x="1237" d="M0 0v0v0v0v0v0v0v0v0v0v0v0v0v0v0v0v0v0v0zM0 0v0v0v0v0v0v0v0zM0 0v0v0v0v0v0v0v0z" />
<glyph unicode="&#xe1;" horiz-adv-x="1237" d="M0 0v0v0v0v0v0v0v0v0v0v0v0v0v0v0v0v0v0v0zM0 0v0v0v0v0v0v0v0zM0 0v0v0v0v0v0v0v0z" />
<glyph unicode="&#xe2;" horiz-adv-x="1237" d="M0 0v0v0v0v0v0v0v0v0v0v0v0v0v0v0v0v0v0v0zM0 0v0v0v0v0v0v0v0zM0 0v0v0v0v0v0v0v0v0v0v0z" />
<glyph unicode="&#xe3;" horiz-adv-x="1237" d="M0 0v0v0v0v0v0v0v0v0v0v0v0v0v0v0v0v0v0v0zM0 0v0v0v0v0v0v0v0zM0 0v0v0v0v0v0v0v0v0v0v0v0v0v0v0v0v0v0v0z" />
<glyph unicode="&#xe4;" horiz-adv-x="1237" d="M0 0v0v0v0v0v0v0v0v0v0v0v0v0v0v0v0v0v0v0zM0 0v0v0v0v0v0v0v0zM0 0v0v0v0v0v0v0v0v0zM0 0v0v0v0v0v0v0v0v0z" />
<glyph unicode="&#xe5;" horiz-adv-x="1237" d="M0 0v0v0v0v0v0v0v0v0v0v0v0v0v0v0v0v0v0v0zM0 0v0v0v0v0v0v0v0zM0 0v0v0v0v0v0v0v0v0zM0 0v0v0v0v0v0v0v0v0z" />
<glyph unicode="&#xe6;" horiz-adv-x="1878" d="M0 0v0v0v0v0v0v0v0v0v0v0v0v0v0v0v0v0v0v0v0v0v0v0v0v0v0v0v0v0zM0 0v0v0v0v0v0v0v0zM0 0v0v0v0v0z" />
<glyph unicode="&#xe7;" horiz-adv-x="1053" d="M0 0v0v0v0v0v0v0v0v0v0v0v0v0v0v0zM0 0v0v0v0v0v0v0v0v0v0v0v0v0v0z" />
<glyph unicode="&#xe8;" horiz-adv-x="1210" d="M0 0v0v0v0v0v0zM0 0v0v0v0v0v0v0v0v0v0v0v0v0v0v0v0zM0 0v0v0v0v0v0v0v0z" />
<glyph unicode="&#xe9;" horiz-adv-x="1210" d="M0 0v0v0v0v0v0zM0 0v0v0v0v0v0v0v0v0v0v0v0v0v0v0v0zM0 0v0v0v0v0v0v0v0z" />
<glyph unicode="&#xea;" horiz-adv-x="1210" d="M0 0v0v0v0v0v0zM0 0v0v0v0v0v0v0v0v0v0v0v0v0v0v0v0zM0 0v0v0v0v0v0v0v0v0v0v0z" />
<glyph unicode="&#xeb;" horiz-adv-x="1210" d="M0 0v0v0v0v0v0zM0 0v0v0v0v0v0v0v0v0v0v0v0v0v0v0v0zM0 0v0v0v0v0v0v0v0v0zM0 0v0v0v0v0v0v0v0v0z" />
<glyph unicode="&#xec;" horiz-adv-x="625" d="M0 0v0v0v0v0zM0 0v0v0v0v0v0v0v0z" />
<glyph unicode="&#xed;" horiz-adv-x="625" d="M0 0v0v0v0v0zM0 0v0v0v0v0v0v0v0z" />
<glyph unicode="&#xee;" horiz-adv-x="625" d="M0 0v0v0v0v0zM0 0v0v0v0v0v0v0v0v0v0v0z" />
<glyph unicode="&#xef;" horiz-adv-x="625" d="M0 0v0v0v0v0zM0 0v0v0v0v0v0v0v0v0zM0 0v0v0v0v0v0v0v0v0z" />
<glyph unicode="&#xf0;" horiz-adv-x="1268" d="M0 0v0v0v0v0v0v0v0v0v0v0v0v0v0v0v0v0v0v0v0v0zM0 0v0v0v0v0v0v0v0v0z" />
<glyph unicode="&#xf1;" horiz-adv-x="1346" d="M0 0v0v0v0v0v0v0v0v0v0v0v0v0v0v0v0v0v0zM0 0v0v0v0v0v0v0v0v0v0v0v0v0v0v0v0v0v0v0z" />
<glyph unicode="&#xf2;" horiz-adv-x="1268" d="M0 0v0v0v0v0v0v0v0v0zM0 0v0v0v0v0v0v0v0v0v0v0zM0 0v0v0v0v0v0v0v0z" />
<glyph unicode="&#xf3;" horiz-adv-x="1268" d="M0 0v0v0v0v0v0v0v0v0zM0 0v0v0v0v0v0v0v0v0v0v0zM0 0v0v0v0v0v0v0v0z" />
<glyph unicode="&#xf4;" horiz-adv-x="1268" d="M0 0v0v0v0v0v0v0v0v0zM0 0v0v0v0v0v0v0v0v0v0v0zM0 0v0v0v0v0v0v0v0v0v0v0z" />
<glyph unicode="&#xf5;" horiz-adv-x="1268" d="M0 0v0v0v0v0v0v0v0v0zM0 0v0v0v0v0v0v0v0v0v0v0zM0 0v0v0v0v0v0v0v0v0v0v0v0v0v0v0v0v0v0v0z" />
<glyph unicode="&#xf6;" horiz-adv-x="1268" d="M0 0v0v0v0v0v0v0v0v0zM0 0v0v0v0v0v0v0v0v0v0v0zM0 0v0v0v0v0v0v0v0v0zM0 0v0v0v0v0v0v0v0v0z" />
<glyph unicode="&#xf7;" d="M0 0v0v0v0v0zM0 0v0v0v0v0v0v0v0v0zM0 0v0v0v0v0v0v0v0v0z" />
<glyph unicode="&#xf8;" horiz-adv-x="1268" d="M0 0v0v0v0v0v0v0v0v0v0v0v0v0v0v0zM0 0v0v0v0v0v0zM0 0v0v0v0v0v0z" />
<glyph unicode="&#xf9;" horiz-adv-x="1346" d="M0 0v0v0v0v0v0v0v0v0v0v0v0v0v0v0v0v0v0zM0 0v0v0v0v0v0v0v0z" />
<glyph unicode="&#xfa;" horiz-adv-x="1346" d="M0 0v0v0v0v0v0v0v0v0v0v0v0v0v0v0v0v0v0zM0 0v0v0v0v0v0v0v0z" />
<glyph unicode="&#xfb;" horiz-adv-x="1346" d="M0 0v0v0v0v0v0v0v0v0v0v0v0v0v0v0v0v0v0zM0 0v0v0v0v0v0v0v0v0v0v0z" />
<glyph unicode="&#xfc;" horiz-adv-x="1346" d="M0 0v0v0v0v0v0v0v0v0v0v0v0v0v0v0v0v0v0zM0 0v0v0v0v0v0v0v0v0zM0 0v0v0v0v0v0v0v0v0z" />
<glyph unicode="&#xfd;" horiz-adv-x="1165" d="M0 0v0v0v0v0v0v0v0v0v0v0v0v0v0v0v0v0v0zM0 0v0v0v0v0v0v0v0z" />
<glyph unicode="&#xfe;" horiz-adv-x="1296" d="M0 0v0v0v0v0v0v0v0v0v0v0v0v0v0v0v0v0v0v0zM0 0v0v0v0v0v0v0v0v0z" />
<glyph unicode="&#xff;" horiz-adv-x="1165" d="M0 0v0v0v0v0v0v0v0v0v0v0v0v0v0v0v0v0v0zM0 0v0v0v0v0v0v0v0v0zM0 0v0v0v0v0v0v0v0v0z" />
<glyph unicode="&#x100;" horiz-adv-x="1413" d="M0 0v0v0v0v0v0v0v0v0zM0 0v0v0v0v0zM0 0v0v0v0v0z" />
<glyph unicode="&#x101;" horiz-adv-x="1237" d="M0 0v0v0v0v0v0v0v0v0v0v0v0v0v0v0v0v0v0v0zM0 0v0v0v0v0v0v0v0zM0 0v0v0v0v0z" />
<glyph unicode="&#x102;" horiz-adv-x="1413" d="M0 0v0v0v0v0v0v0v0v0zM0 0v0v0v0v0zM0 0v0v0v0v0v0v0v0v0v0v0z" />
<glyph unicode="&#x103;" horiz-adv-x="1237" d="M0 0v0v0v0v0v0v0v0v0v0v0v0v0v0v0v0v0v0v0zM0 0v0v0v0v0v0v0v0zM0 0v0v0v0v0v0v0v0v0v0v0z" />
<glyph unicode="&#x104;" horiz-adv-x="1413" d="M0 0v0v0v0v0v0v0v0v0zM0 0v0v0v0v0zM0 0v0v0v0v0v0v0v0v0v0v0v0v0z" />
<glyph unicode="&#x105;" horiz-adv-x="1237" d="M0 0v0v0v0v0v0v0v0v0v0v0v0v0v0v0v0v0v0v0zM0 0v0v0v0v0v0v0v0zM0 0v0v0v0v0v0v0v0v0v0v0v0v0z" />
<glyph unicode="&#x106;" horiz-adv-x="1305" d="M0 0v0v0v0v0v0v0v0v0v0v0v0v0v0v0v0zM0 0v0v0v0v0v0v0v0z" />
<glyph unicode="&#x107;" horiz-adv-x="1053" d="M0 0v0v0v0v0v0v0v0v0v0v0v0v0v0v0zM0 0v0v0v0v0v0v0v0z" />
<glyph unicode="&#x108;" horiz-adv-x="1305" d="M0 0v0v0v0v0v0v0v0v0v0v0v0v0v0v0v0zM0 0v0v0v0v0v0v0v0v0v0v0z" />
<glyph unicode="&#x109;" horiz-adv-x="1053" d="M0 0v0v0v0v0v0v0v0v0v0v0v0v0v0v0zM0 0v0v0v0v0v0v0v0v0v0v0z" />
<glyph unicode="&#x10a;" horiz-adv-x="1305" d="M0 0v0v0v0v0v0v0v0v0v0v0v0v0v0v0v0zM0 0v0v0v0v0v0z" />
<glyph unicode="&#x10b;" horiz-adv-x="1053" d="M0 0v0v0v0v0v0v0v0v0v0v0v0v0v0v0zM0 0v0v0v0v0v0z" />
<glyph unicode="&#x10c;" horiz-adv-x="1305" d="M0 0v0v0v0v0v0v0v0v0v0v0v0v0v0v0v0zM0 0v0v0v0v0v0v0v0v0v0v0v0z" />
<glyph unicode="&#x10d;" horiz-adv-x="1053" d="M0 0v0v0v0v0v0v0v0v0v0v0v0v0v0v0zM0 0v0v0v0v0v0v0v0v0v0v0v0z" />
<glyph unicode="&#x10e;" horiz-adv-x="1516" d="M0 0v0v0v0v0v0v0v0zM0 0v0v0v0v0v0zM0 0v0v0v0v0v0v0v0v0v0v0v0z" />
<glyph unicode="&#x10f;" horiz-adv-x="1296" d="M0 0v0v0v0v0v0v0v0v0v0v0v0v0v0v0zM0 0v0v0v0v0v0v0v0v0v0zM0 0v0v0v0v0v0v0v0z" />
<glyph unicode="&#x110;" horiz-adv-x="1516" d="M0 0v0v0v0v0v0v0v0v0v0v0v0zM0 0v0v0v0v0v0v0v0v0v0v0z" />
<glyph unicode="&#x111;" horiz-adv-x="1329" d="M0 0v0v0v0v0v0v0v0v0v0v0v0v0v0v0v0v0v0v0v0v0v0v0v0zM0 0v0v0v0v0v0v0v0v0v0z" />
<glyph unicode="&#x112;" horiz-adv-x="1147" d="M0 0v0v0v0v0v0v0v0v0v0v0v0v0zM0 0v0v0v0v0z" />
<glyph unicode="&#x113;" horiz-adv-x="1210" d="M0 0v0v0v0v0v0zM0 0v0v0v0v0v0v0v0v0v0v0v0v0v0v0v0zM0 0v0v0v0v0z" />
<glyph unicode="&#x114;" horiz-adv-x="1147" d="M0 0v0v0v0v0v0v0v0v0v0v0v0v0zM0 0v0v0v0v0v0v0v0v0v0v0z" />
<glyph unicode="&#x115;" horiz-adv-x="1210" d="M0 0v0v0v0v0v0zM0 0v0v0v0v0v0v0v0v0v0v0v0v0v0v0v0zM0 0v0v0v0v0v0v0v0v0v0v0z" />
<glyph unicode="&#x116;" horiz-adv-x="1147" d="M0 0v0v0v0v0v0v0v0v0v0v0v0v0zM0 0v0v0v0v0v0z" />
<glyph unicode="&#x117;" horiz-adv-x="1210" d="M0 0v0v0v0v0v0zM0 0v0v0v0v0v0v0v0v0v0v0v0v0v0v0v0zM0 0v0v0v0v0v0z" />
<glyph unicode="&#x118;" horiz-adv-x="1147" d="M0 0v0v0v0v0v0v0v0v0v0v0v0v0zM0 0v0v0v0v0v0v0v0v0v0v0v0v0z" />
<glyph unicode="&#x119;" horiz-adv-x="1210" d="M0 0v0v0v0v0v0zM0 0v0v0v0v0v0v0v0v0v0v0v0v0v0v0v0zM0 0v0v0v0v0v0v0v0v0v0v0v0v0z" />
<glyph unicode="&#x11a;" horiz-adv-x="1147" d="M0 0v0v0v0v0v0v0v0v0v0v0v0v0zM0 0v0v0v0v0v0v0v0v0v0v0v0z" />
<glyph unicode="&#x11b;" horiz-adv-x="1210" d="M0 0v0v0v0v0v0zM0 0v0v0v0v0v0v0v0v0v0v0v0v0v0v0v0zM0 0v0v0v0v0v0v0v0v0v0v0v0z" />
<glyph unicode="&#x11c;" horiz-adv-x="1483" d="M0 0v0v0v0v0v0v0v0v0v0v0v0v0v0v0v0v0v0v0v0zM0 0v0v0v0v0v0v0v0v0v0v0z" />
<glyph unicode="&#x11d;" horiz-adv-x="1157" d="M0 0v0v0v0v0v0v0v0v0v0v0v0v0v0v0v0v0v0v0v0v0v0v0v0v0v0v0v0v0v0zM0 0v0v0v0v0v0v0v0v0v0zM0 0v0v0v0v0v0v0zM0 0v0v0v0v0v0v0v0v0v0v0z" />
<glyph unicode="&#x11e;" horiz-adv-x="1483" d="M0 0v0v0v0v0v0v0v0v0v0v0v0v0v0v0v0v0v0v0v0zM0 0v0v0v0v0v0v0v0v0v0v0z" />
<glyph unicode="&#x11f;" horiz-adv-x="1157" d="M0 0v0v0v0v0v0v0v0v0v0v0v0v0v0v0v0v0v0v0v0v0v0v0v0v0v0v0v0v0v0zM0 0v0v0v0v0v0v0v0v0v0zM0 0v0v0v0v0v0v0zM0 0v0v0v0v0v0v0v0v0v0v0z" />
<glyph unicode="&#x120;" horiz-adv-x="1483" d="M0 0v0v0v0v0v0v0v0v0v0v0v0v0v0v0v0v0v0v0v0zM0 0v0v0v0v0v0z" />
<glyph unicode="&#x121;" horiz-adv-x="1157" d="M0 0v0v0v0v0v0v0v0v0v0v0v0v0v0v0v0v0v0v0v0v0v0v0v0v0v0v0v0v0v0zM0 0v0v0v0v0v0v0v0v0v0zM0 0v0v0v0v0v0v0zM0 0v0v0v0v0v0z" />
<glyph unicode="&#x122;" horiz-adv-x="1483" d="M0 0v0v0v0v0v0v0v0v0v0v0v0v0v0v0v0v0v0v0v0zM0 0v0v0v0v0v0v0v0z" />
<glyph unicode="&#x123;" horiz-adv-x="1157" d="M0 0v0v0v0v0v0v0v0v0v0v0v0v0v0v0v0v0v0v0v0v0v0v0v0v0v0v0v0v0v0zM0 0v0v0v0v0v0v0v0v0v0zM0 0v0v0v0v0v0v0zM0 0v0v0v0v0v0v0v0z" />
<glyph unicode="&#x124;" horiz-adv-x="1567" d="M0 0v0v0v0v0v0v0v0v0v0v0v0v0zM0 0v0v0v0v0v0v0v0v0v0v0z" />
<glyph unicode="&#x125;" horiz-adv-x="1346" d="M0 0v0v0v0v0v0v0v0v0v0v0v0v0v0v0v0v0v0zM0 0v0v0v0v0v0v0v0v0v0v0z" />
<glyph unicode="&#x126;" horiz-adv-x="1567" d="M0 0v0v0v0v0v0v0v0v0v0v0v0v0v0v0v0v0v0v0v0v0zM0 0v0v0v0v0z" />
<glyph unicode="&#x127;" horiz-adv-x="1346" d="M0 0v0v0v0v0v0v0v0v0v0v0v0v0v0v0v0v0v0v0v0v0v0v0v0v0z" />
<glyph unicode="&#x128;" horiz-adv-x="678" d="M0 0v0v0v0v0zM0 0v0v0v0v0v0v0v0v0v0v0v0v0v0v0v0v0v0v0z" />
<glyph unicode="&#x129;" horiz-adv-x="625" d="M0 0v0v0v0v0zM0 0v0v0v0v0v0v0v0v0v0v0v0v0v0v0v0v0v0v0z" />
<glyph unicode="&#x12a;" horiz-adv-x="678" d="M0 0v0v0v0v0zM0 0v0v0v0v0z" />
<glyph unicode="&#x12b;" horiz-adv-x="625" d="M0 0v0v0v0v0zM0 0v0v0v0v0z" />
<glyph unicode="&#x12c;" horiz-adv-x="678" d="M0 0v0v0v0v0zM0 0v0v0v0v0v0v0v0v0v0v0z" />
<glyph unicode="&#x12d;" horiz-adv-x="625" d="M0 0v0v0v0v0zM0 0v0v0v0v0v0v0v0v0v0v0z" />
<glyph unicode="&#x12e;" horiz-adv-x="678" d="M0 0v0v0v0v0zM0 0v0v0v0v0v0v0v0v0v0v0v0v0z" />
<glyph unicode="&#x12f;" horiz-adv-x="625" d="M0 0v0v0v0v0v0zM0 0v0v0v0v0zM0 0v0v0v0v0v0v0v0v0v0v0v0v0z" />
<glyph unicode="&#x130;" horiz-adv-x="678" d="M0 0v0v0v0v0zM0 0v0v0v0v0v0z" />
<glyph unicode="&#x131;" horiz-adv-x="625" d="M0 0v0v0v0v0z" />
<glyph unicode="&#x132;" horiz-adv-x="1475" d="M0 0v0v0v0v0zM0 0v0v0v0v0v0v0v0v0v0v0z" />
<glyph unicode="&#x133;" horiz-adv-x="1210" d="M0 0v0v0v0v0v0zM0 0v0v0v0v0zM0 0v0v0v0v0v0v0v0v0v0v0zM0 0v0v0v0v0v0z" />
<glyph unicode="&#x134;" horiz-adv-x="678" d="M0 0v0v0v0v0v0v0v0v0v0v0zM0 0v0v0v0v0v0v0v0v0v0v0z" />
<glyph unicode="&#x135;" horiz-adv-x="625" d="M0 0v0v0v0v0v0v0v0v0v0v0zM0 0v0v0v0v0v0v0v0v0v0v0z" />
<glyph unicode="&#x136;" horiz-adv-x="1360" d="M0 0v0v0v0v0v0v0v0v0v0v0v0v0v0zM0 0v0v0v0v0v0v0v0z" />
<glyph unicode="&#x137;" horiz-adv-x="1270" d="M0 0v0v0v0v0v0v0v0v0v0v0v0v0v0v0v0zM0 0v0v0v0v0v0v0v0z" />
<glyph unicode="&#x138;" horiz-adv-x="1270" d="M0 0v0v0v0v0v0v0v0v0v0v0v0v0v0v0v0v0z" />
<glyph unicode="&#x139;" horiz-adv-x="1157" d="M0 0v0v0v0v0v0v0zM0 0v0v0v0v0v0v0v0z" />
<glyph unicode="&#x13a;" horiz-adv-x="625" d="M0 0v0v0v0v0zM0 0v0v0v0v0v0v0v0z" />
<glyph unicode="&#x13b;" horiz-adv-x="1157" d="M0 0v0v0v0v0v0v0zM0 0v0v0v0v0v0v0v0z" />
<glyph unicode="&#x13c;" horiz-adv-x="625" d="M0 0v0v0v0v0zM0 0v0v0v0v0v0v0v0z" />
<glyph unicode="&#x13d;" horiz-adv-x="1157" d="M0 0v0v0v0v0v0v0zM0 0v0v0v0v0v0v0v0z" />
<glyph unicode="&#x13e;" horiz-adv-x="625" d="M0 0v0v0v0v0zM0 0v0v0v0v0v0v0v0z" />
<glyph unicode="&#x13f;" horiz-adv-x="1157" d="M0 0v0v0v0v0v0v0zM0 0v0v0v0v0v0z" />
<glyph unicode="&#x140;" horiz-adv-x="877" d="M0 0v0v0v0v0zM0 0v0v0v0v0v0z" />
<glyph unicode="&#x141;" horiz-adv-x="1157" d="M0 0v0v0v0v0v0v0v0v0v0v0v0v0v0v0z" />
<glyph unicode="&#x142;" horiz-adv-x="676" d="M0 0v0v0v0v0v0v0v0v0v0v0v0v0z" />
<glyph unicode="&#x143;" horiz-adv-x="1665" d="M0 0v0v0v0v0v0v0v0v0v0v0v0v0v0v0zM0 0v0v0v0v0v0v0v0z" />
<glyph unicode="&#x144;" horiz-adv-x="1346" d="M0 0v0v0v0v0v0v0v0v0v0v0v0v0v0v0v0v0v0zM0 0v0v0v0v0v0v0v0z" />
<glyph unicode="&#x145;" horiz-adv-x="1665" d="M0 0v0v0v0v0v0v0v0v0v0v0v0v0v0v0zM0 0v0v0v0v0v0v0v0z" />
<glyph unicode="&#x146;" horiz-adv-x="1346" d="M0 0v0v0v0v0v0v0v0v0v0v0v0v0v0v0v0v0v0zM0 0v0v0v0v0v0v0v0z" />
<glyph unicode="&#x147;" horiz-adv-x="1665" d="M0 0v0v0v0v0v0v0v0v0v0v0v0v0v0v0zM0 0v0v0v0v0v0v0v0v0v0v0v0z" />
<glyph unicode="&#x148;" horiz-adv-x="1346" d="M0 0v0v0v0v0v0v0v0v0v0v0v0v0v0v0v0v0v0zM0 0v0v0v0v0v0v0v0v0v0v0v0z" />
<glyph unicode="&#x149;" horiz-adv-x="1595" d="M0 0v0v0v0v0v0v0v0v0v0v0v0v0v0v0v0v0v0zM0 0v0v0v0v0v0z" />
<glyph unicode="&#x14a;" horiz-adv-x="1665" d="M0 0v0v0v0v0v0v0v0v0v0v0v0v0v0v0v0v0v0v0v0v0v0z" />
<glyph unicode="&#x14b;" horiz-adv-x="1346" d="M0 0v0v0v0v0v0v0v0v0v0v0v0v0v0v0v0v0v0v0v0v0v0z" />
<glyph unicode="&#x14c;" horiz-adv-x="1630" d="M0 0v0v0v0v0v0v0v0v0zM0 0v0v0v0v0v0v0zM0 0v0v0v0v0z" />
<glyph unicode="&#x14d;" horiz-adv-x="1268" d="M0 0v0v0v0v0v0v0v0v0zM0 0v0v0v0v0v0v0v0v0v0v0zM0 0v0v0v0v0z" />
<glyph unicode="&#x14e;" horiz-adv-x="1630" d="M0 0v0v0v0v0v0v0v0v0zM0 0v0v0v0v0v0v0zM0 0v0v0v0v0v0v0v0v0v0v0z" />
<glyph unicode="&#x14f;" horiz-adv-x="1268" d="M0 0v0v0v0v0v0v0v0v0zM0 0v0v0v0v0v0v0v0v0v0v0zM0 0v0v0v0v0v0v0v0v0v0v0z" />
<glyph unicode="&#x150;" horiz-adv-x="1630" d="M0 0v0v0v0v0v0v0v0v0zM0 0v0v0v0v0v0v0zM0 0v0v0v0v0v0v0v0v0zM0 0v0v0v0v0v0v0v0z" />
<glyph unicode="&#x151;" horiz-adv-x="1268" d="M0 0v0v0v0v0v0v0v0v0zM0 0v0v0v0v0v0v0v0v0v0v0zM0 0v0v0v0v0v0v0v0v0zM0 0v0v0v0v0v0v0v0z" />
<glyph unicode="&#x152;" horiz-adv-x="1993" d="M0 0v0v0v0v0v0v0v0v0v0v0v0v0v0v0v0v0v0v0v0zM0 0v0v0v0v0v0v0v0v0v0z" />
<glyph unicode="&#x153;" horiz-adv-x="2003" d="M0 0v0v0v0v0v0v0v0v0v0v0v0v0v0v0v0v0v0v0v0v0v0v0zM0 0v0v0v0v0v0v0v0v0zM0 0v0v0v0v0v0z" />
<glyph unicode="&#x154;" horiz-adv-x="1352" d="M0 0v0v0v0v0v0v0v0zM0 0v0v0v0v0v0v0v0v0v0v0v0v0zM0 0v0v0v0v0v0v0v0z" />
<glyph unicode="&#x155;" horiz-adv-x="930" d="M0 0v0v0v0v0v0v0v0v0v0v0v0v0v0zM0 0v0v0v0v0v0v0v0z" />
<glyph unicode="&#x156;" horiz-adv-x="1352" d="M0 0v0v0v0v0v0v0v0zM0 0v0v0v0v0v0v0v0v0v0v0v0v0zM0 0v0v0v0v0v0v0v0z" />
<glyph unicode="&#x157;" horiz-adv-x="930" d="M0 0v0v0v0v0v0v0v0v0v0v0v0v0v0zM0 0v0v0v0v0v0v0v0z" />
<glyph unicode="&#x158;" horiz-adv-x="1352" d="M0 0v0v0v0v0v0v0v0zM0 0v0v0v0v0v0v0v0v0v0v0v0v0zM0 0v0v0v0v0v0v0v0v0v0v0v0z" />
<glyph unicode="&#x159;" horiz-adv-x="930" d="M0 0v0v0v0v0v0v0v0v0v0v0v0v0v0zM0 0v0v0v0v0v0v0v0v0v0v0v0z" />
<glyph unicode="&#x15a;" horiz-adv-x="1128" d="M0 0v0v0v0v0v0v0v0v0v0v0v0v0v0v0v0v0v0v0v0v0v0v0v0v0v0v0v0v0zM0 0v0v0v0v0v0v0v0z" />
<glyph unicode="&#x15b;" horiz-adv-x="1018" d="M0 0v0v0v0v0v0v0v0v0v0v0v0v0v0v0v0v0v0v0v0v0v0v0v0v0v0v0zM0 0v0v0v0v0v0v0v0z" />
<glyph unicode="&#x15c;" horiz-adv-x="1128" d="M0 0v0v0v0v0v0v0v0v0v0v0v0v0v0v0v0v0v0v0v0v0v0v0v0v0v0v0v0v0zM0 0v0v0v0v0v0v0v0v0v0v0z" />
<glyph unicode="&#x15d;" horiz-adv-x="1018" d="M0 0v0v0v0v0v0v0v0v0v0v0v0v0v0v0v0v0v0v0v0v0v0v0v0v0v0v0zM0 0v0v0v0v0v0v0v0v0v0v0z" />
<glyph unicode="&#x15e;" horiz-adv-x="1128" d="M0 0v0v0v0v0v0v0v0v0v0v0v0v0v0v0v0v0v0v0v0v0v0v0v0v0v0v0v0v0zM0 0v0v0v0v0v0v0v0v0v0v0v0v0v0z" />
<glyph unicode="&#x15f;" horiz-adv-x="1018" d="M0 0v0v0v0v0v0v0v0v0v0v0v0v0v0v0v0v0v0v0v0v0v0v0v0v0v0v0zM0 0v0v0v0v0v0v0v0v0v0v0v0v0v0z" />
<glyph unicode="&#x160;" horiz-adv-x="1128" d="M0 0v0v0v0v0v0v0v0v0v0v0v0v0v0v0v0v0v0v0v0v0v0v0v0v0v0v0v0v0zM0 0v0v0v0v0v0v0v0v0v0v0v0z" />
<glyph unicode="&#x161;" horiz-adv-x="1018" d="M0 0v0v0v0v0v0v0v0v0v0v0v0v0v0v0v0v0v0v0v0v0v0v0v0v0v0v0zM0 0v0v0v0v0v0v0v0v0v0v0v0z" />
<glyph unicode="&#x162;" horiz-adv-x="1186" d="M0 0v0v0v0v0v0v0v0v0zM0 0v0v0v0v0v0v0v0v0v0v0v0v0v0z" />
<glyph unicode="&#x163;" horiz-adv-x="889" d="M0 0v0v0v0v0v0v0v0v0v0v0v0v0v0v0v0v0v0v0zM0 0v0v0v0v0v0v0v0v0v0v0v0v0v0z" />
<glyph unicode="&#x164;" horiz-adv-x="1186" d="M0 0v0v0v0v0v0v0v0v0zM0 0v0v0v0v0v0v0v0v0v0v0v0z" />
<glyph unicode="&#x165;" horiz-adv-x="889" d="M0 0v0v0v0v0v0v0v0v0v0v0v0v0v0v0v0v0v0v0zM0 0v0v0v0v0v0v0v0z" />
<glyph unicode="&#x166;" horiz-adv-x="1186" d="M0 0v0v0v0v0v0v0v0v0v0v0v0v0v0v0v0v0z" />
<glyph unicode="&#x167;" horiz-adv-x="889" d="M0 0v0v0v0v0v0v0v0v0v0v0v0v0v0v0v0v0v0v0v0v0v0v0v0v0v0v0v0z" />
<glyph unicode="&#x168;" horiz-adv-x="1548" d="M0 0v0v0v0v0v0v0v0v0v0v0v0v0v0v0v0zM0 0v0v0v0v0v0v0v0v0v0v0v0v0v0v0v0v0v0v0z" />
<glyph unicode="&#x169;" horiz-adv-x="1346" d="M0 0v0v0v0v0v0v0v0v0v0v0v0v0v0v0v0v0v0zM0 0v0v0v0v0v0v0v0v0v0v0v0v0v0v0v0v0v0v0z" />
<glyph unicode="&#x16a;" horiz-adv-x="1548" d="M0 0v0v0v0v0v0v0v0v0v0v0v0v0v0v0v0zM0 0v0v0v0v0z" />
<glyph unicode="&#x16b;" horiz-adv-x="1346" d="M0 0v0v0v0v0v0v0v0v0v0v0v0v0v0v0v0v0v0zM0 0v0v0v0v0z" />
<glyph unicode="&#x16c;" horiz-adv-x="1548" d="M0 0v0v0v0v0v0v0v0v0v0v0v0v0v0v0v0zM0 0v0v0v0v0v0v0v0v0v0v0z" />
<glyph unicode="&#x16d;" horiz-adv-x="1346" d="M0 0v0v0v0v0v0v0v0v0v0v0v0v0v0v0v0v0v0zM0 0v0v0v0v0v0v0v0v0v0v0z" />
<glyph unicode="&#x16e;" horiz-adv-x="1548" d="M0 0v0v0v0v0v0v0v0v0v0v0v0v0v0v0v0zM0 0v0v0v0v0v0v0v0v0zM0 0v0v0v0v0v0v0v0v0z" />
<glyph unicode="&#x16f;" horiz-adv-x="1346" d="M0 0v0v0v0v0v0v0v0v0v0v0v0v0v0v0v0v0v0zM0 0v0v0v0v0v0v0v0v0zM0 0v0v0v0v0v0v0v0v0z" />
<glyph unicode="&#x170;" horiz-adv-x="1548" d="M0 0v0v0v0v0v0v0v0v0v0v0v0v0v0v0v0zM0 0v0v0v0v0v0v0v0v0zM0 0v0v0v0v0v0v0v0z" />
<glyph unicode="&#x171;" horiz-adv-x="1346" d="M0 0v0v0v0v0v0v0v0v0v0v0v0v0v0v0v0v0v0zM0 0v0v0v0v0v0v0v0v0zM0 0v0v0v0v0v0v0v0z" />
<glyph unicode="&#x172;" horiz-adv-x="1548" d="M0 0v0v0v0v0v0v0v0v0v0v0v0v0v0v0v0zM0 0v0v0v0v0v0v0v0v0v0v0v0v0z" />
<glyph unicode="&#x173;" horiz-adv-x="1346" d="M0 0v0v0v0v0v0v0v0v0v0v0v0v0v0v0v0v0v0zM0 0v0v0v0v0v0v0v0v0v0v0v0v0z" />
<glyph unicode="&#x174;" horiz-adv-x="1980" d="M0 0v0v0v0v0v0v0v0v0v0v0v0v0v0v0v0v0v0v0v0v0v0v0v0v0zM0 0v0v0v0v0v0v0v0v0v0v0z" />
<glyph unicode="&#x175;" horiz-adv-x="1753" d="M0 0v0v0v0v0v0v0v0v0v0v0v0v0v0v0v0v0v0v0v0v0v0v0v0v0v0v0zM0 0v0v0v0v0v0v0v0v0v0v0z" />
<glyph unicode="&#x176;" horiz-adv-x="1278" d="M0 0v0v0v0v0v0v0v0v0v0zM0 0v0v0v0v0v0v0v0v0v0v0z" />
<glyph unicode="&#x177;" horiz-adv-x="1165" d="M0 0v0v0v0v0v0v0v0v0v0v0v0v0v0v0v0v0v0zM0 0v0v0v0v0v0v0v0v0v0v0z" />
<glyph unicode="&#x178;" horiz-adv-x="1278" d="M0 0v0v0v0v0v0v0v0v0v0zM0 0v0v0v0v0v0v0v0v0zM0 0v0v0v0v0v0v0v0v0z" />
<glyph unicode="&#x179;" horiz-adv-x="1186" d="M0 0v0v0v0v0v0v0v0v0v0v0zM0 0v0v0v0v0v0v0v0z" />
<glyph unicode="&#x17a;" horiz-adv-x="999" d="M0 0v0v0v0v0v0v0v0v0v0v0zM0 0v0v0v0v0v0v0v0z" />
<glyph unicode="&#x17b;" horiz-adv-x="1186" d="M0 0v0v0v0v0v0v0v0v0v0v0zM0 0v0v0v0v0v0z" />
<glyph unicode="&#x17c;" horiz-adv-x="999" d="M0 0v0v0v0v0v0v0v0v0v0v0zM0 0v0v0v0v0v0z" />
<glyph unicode="&#x17d;" horiz-adv-x="1186" d="M0 0v0v0v0v0v0v0v0v0v0v0zM0 0v0v0v0v0v0v0v0v0v0v0v0z" />
<glyph unicode="&#x17e;" horiz-adv-x="999" d="M0 0v0v0v0v0v0v0v0v0v0v0zM0 0v0v0v0v0v0v0v0v0v0v0v0z" />
<glyph unicode="&#x17f;" horiz-adv-x="784" d="M0 0v0v0v0v0v0v0v0v0v0z" />
<glyph unicode="&#x192;" d="M0 0v0v0v0v0v0v0v0v0v0v0v0v0v0v0v0v0v0v0v0v0v0v0z" />
<glyph unicode="&#x1a0;" horiz-adv-x="1690" d="M0 0v0v0v0v0v0v0v0v0v0v0v0v0v0zM0 0v0v0v0v0v0v0zM0 0z" />
<glyph unicode="&#x1a1;" horiz-adv-x="1391" d="M0 0v0v0v0v0v0v0v0v0v0v0v0v0v0v0v0v0zM0 0v0v0v0v0v0v0v0v0zM0 0z" />
<glyph unicode="&#x1af;" horiz-adv-x="1812" d="M0 0v0v0v0v0v0v0v0v0v0v0v0v0v0v0v0v0v0v0v0v0v0v0v0zM0 0z" />
<glyph unicode="&#x1b0;" horiz-adv-x="1556" d="M0 0v0v0v0v0v0v0v0v0v0v0v0v0v0v0v0v0v0v0v0v0v0v0v0v0v0zM0 0z" />
<glyph unicode="&#x1f0;" horiz-adv-x="625" d="M0 0v0v0v0v0v0v0v0v0v0v0zM0 0v0v0v0v0v0v0v0v0v0v0v0z" />
<glyph unicode="&#x1fa;" horiz-adv-x="1413" d="M0 0v0v0v0v0v0v0v0v0v0v0v0v0v0zM0 0v0v0v0v0v0zM0 0v0v0v0v0v0v0v0v0zM0 0v0v0v0v0v0v0v0v0z" />
<glyph unicode="&#x1fb;" horiz-adv-x="1237" d="M0 0v0v0v0v0v0v0v0v0v0v0v0v0v0v0v0v0v0v0zM0 0v0v0v0v0v0v0v0zM0 0v0v0v0v0v0v0v0v0zM0 0v0v0v0v0v0v0v0v0zM0 0v0v0v0v0v0v0v0v0z" />
<glyph unicode="&#x1fc;" horiz-adv-x="1950" d="M0 0v0v0v0v0v0v0v0v0v0v0v0v0v0v0v0v0zM0 0v0v0v0v0zM0 0v0v0v0v0v0v0v0z" />
<glyph unicode="&#x1fd;" horiz-adv-x="1878" d="M0 0v0v0v0v0v0v0v0v0v0v0v0v0v0v0v0v0v0v0v0v0v0v0v0v0v0v0v0v0zM0 0v0v0v0v0v0v0v0zM0 0v0v0v0v0zM0 0v0v0v0v0v0v0v0z" />
<glyph unicode="&#x1fe;" horiz-adv-x="1630" d="M0 0v0v0v0v0v0v0v0v0v0v0v0v0v0v0zM0 0v0v0v0v0v0zM0 0v0v0v0v0zM0 0v0v0v0v0v0v0v0z" />
<glyph unicode="&#x1ff;" horiz-adv-x="1268" d="M0 0v0v0v0v0v0v0v0v0v0v0v0v0v0v0zM0 0v0v0v0v0v0zM0 0v0v0v0v0v0zM0 0v0v0v0v0v0v0v0z" />
<glyph unicode="&#x218;" horiz-adv-x="1128" d="M0 0v0v0v0v0v0v0v0v0v0v0v0v0v0v0v0v0v0v0v0v0v0v0v0v0v0v0v0v0zM0 0v0v0v0v0v0v0v0z" />
<glyph unicode="&#x219;" horiz-adv-x="1018" d="M0 0v0v0v0v0v0v0v0v0v0v0v0v0v0v0v0v0v0v0v0v0v0v0v0v0v0v0zM0 0v0v0v0v0v0v0v0z" />
<glyph unicode="&#x21a;" horiz-adv-x="1186" d="M0 0v0v0v0v0v0v0v0v0zM0 0v0v0v0v0v0v0v0z" />
<glyph unicode="&#x21b;" horiz-adv-x="889" d="M0 0v0v0v0v0v0v0v0v0v0v0v0v0v0v0v0v0v0v0zM0 0v0v0v0v0v0v0v0z" />
<glyph unicode="&#x237;" horiz-adv-x="625" d="M0 0v0v0v0v0v0v0v0v0v0v0z" />
<glyph unicode="&#x2bc;" horiz-adv-x="444" d="M0 0v0v0v0v0v0z" />
<glyph unicode="&#x2c6;" horiz-adv-x="1243" d="M0 0v0v0v0v0v0v0v0v0v0v0z" />
<glyph unicode="&#x2c7;" horiz-adv-x="1243" d="M0 0v0v0v0v0v0v0v0v0v0v0v0z" />
<glyph unicode="&#x2c9;" horiz-adv-x="1243" d="M0 0v0v0v0v0z" />
<glyph unicode="&#x2d8;" horiz-adv-x="1243" d="M0 0v0v0v0v0v0v0v0v0v0v0z" />
<glyph unicode="&#x2d9;" horiz-adv-x="625" d="M0 0v0v0v0v0v0z" />
<glyph unicode="&#x2da;" horiz-adv-x="1182" d="M0 0v0v0v0v0v0v0v0v0zM0 0v0v0v0v0v0v0v0v0z" />
<glyph unicode="&#x2db;" horiz-adv-x="422" d="M0 0v0v0v0v0v0v0v0v0v0v0v0v0z" />
<glyph unicode="&#x2dc;" horiz-adv-x="1243" d="M0 0v0v0v0v0v0v0v0v0v0v0v0v0v0v0v0v0v0v0z" />
<glyph unicode="&#x2dd;" horiz-adv-x="1204" d="M0 0v0v0v0v0v0v0v0v0zM0 0v0v0v0v0v0v0v0z" />
<glyph unicode="&#x2f3;" horiz-adv-x="682" d="M0 0v0v0v0v0v0v0v0v0zM0 0v0v0v0v0v0v0v0v0z" />
<glyph unicode="&#x300;" horiz-adv-x="0" d="M0 0v0v0v0v0v0v0v0z" />
<glyph unicode="&#x301;" horiz-adv-x="0" d="M0 0v0v0v0v0v0v0v0z" />
<glyph unicode="&#x303;" horiz-adv-x="0" d="M0 0v0v0v0v0v0v0v0v0v0v0v0v0v0v0v0v0v0v0z" />
<glyph unicode="&#x309;" horiz-adv-x="0" d="M0 0v0v0v0v0v0v0v0v0v0v0v0v0v0v0z" />
<glyph unicode="&#x30f;" horiz-adv-x="0" d="M0 0v0v0v0v0v0v0v0v0zM0 0v0v0v0v0v0v0v0v0z" />
<glyph unicode="&#x323;" horiz-adv-x="0" d="M0 0v0v0v0v0v0z" />
<glyph unicode="&#x384;" horiz-adv-x="1182" d="M0 0v0v0v0v0v0v0v0z" />
<glyph unicode="&#x385;" horiz-adv-x="1182" d="M0 0v0v0v0v0v0v0v0v0zM0 0v0v0v0v0v0v0v0zM0 0v0v0v0v0v0v0v0z" />
<glyph unicode="&#x386;" horiz-adv-x="1413" d="M0 0v0v0v0v0v0v0v0v0zM0 0v0v0v0v0zM0 0v0v0v0v0v0v0v0z" />
<glyph unicode="&#x387;" horiz-adv-x="584" d="M0 0v0v0v0v0v0v0v0v0z" />
<glyph unicode="&#x388;" horiz-adv-x="1290" d="M0 0v0v0v0v0v0v0v0v0v0v0v0v0zM0 0v0v0v0v0v0v0v0z" />
<glyph unicode="&#x389;" horiz-adv-x="1710" d="M0 0v0v0v0v0v0v0v0v0v0v0v0v0zM0 0v0v0v0v0v0v0v0z" />
<glyph unicode="&#x38a;" horiz-adv-x="1049" d="M0 0v0v0v0v0zM0 0v0v0v0v0v0v0v0z" />
<glyph unicode="&#x38c;" horiz-adv-x="1712" d="M0 0v0v0v0v0v0v0v0v0zM0 0v0v0v0v0v0v0zM0 0v0v0v0v0v0v0v0z" />
<glyph unicode="&#x38e;" horiz-adv-x="1565" d="M0 0v0v0v0v0v0v0v0v0v0zM0 0v0v0v0v0v0v0v0z" />
<glyph unicode="&#x38f;" horiz-adv-x="1610" d="M0 0v0v0v0v0v0v0v0v0v0v0v0v0v0v0v0v0v0v0v0v0v0v0v0v0v0zM0 0v0v0v0v0v0v0v0z" />
<glyph unicode="&#x390;" horiz-adv-x="834" d="M0 0v0v0v0v0v0v0v0v0v0v0zM0 0v0v0v0v0v0v0v0v0zM0 0v0v0v0v0v0v0v0zM0 0v0v0v0v0v0v0v0z" />
<glyph unicode="&#x391;" horiz-adv-x="1413" d="M0 0v0v0v0v0v0v0v0v0zM0 0v0v0v0v0z" />
<glyph unicode="&#x392;" horiz-adv-x="1376" d="M0 0v0v0v0v0v0v0v0v0v0v0v0v0zM0 0v0v0v0v0v0v0v0zM0 0v0v0v0v0v0v0z" />
<glyph unicode="&#x393;" horiz-adv-x="1149" d="M0 0v0v0v0v0v0v0z" />
<glyph unicode="&#x394;" horiz-adv-x="1348" d="M0 0v0v0v0v0v0v0zM0 0v0v0v0v0v0v0v0z" />
<glyph unicode="&#x395;" horiz-adv-x="1147" d="M0 0v0v0v0v0v0v0v0v0v0v0v0v0z" />
<glyph unicode="&#x396;" horiz-adv-x="1186" d="M0 0v0v0v0v0v0v0v0v0v0v0z" />
<glyph unicode="&#x397;" horiz-adv-x="1567" d="M0 0v0v0v0v0v0v0v0v0v0v0v0v0z" />
<glyph unicode="&#x398;" horiz-adv-x="1630" d="M0 0v0v0v0v0zM0 0v0v0v0v0v0v0v0v0zM0 0v0v0v0v0v0v0v0v0z" />
<glyph unicode="&#x399;" horiz-adv-x="678" d="M0 0v0v0v0v0z" />
<glyph unicode="&#x39a;" horiz-adv-x="1360" d="M0 0v0v0v0v0v0v0v0v0v0v0v0v0v0z" />
<glyph unicode="&#x39b;" horiz-adv-x="1331" d="M0 0v0v0v0v0v0v0v0v0v0v0v0z" />
<glyph unicode="&#x39c;" horiz-adv-x="1931" d="M0 0v0v0v0v0v0v0v0v0v0v0v0v0v0v0v0v0v0v0v0z" />
<glyph unicode="&#x39d;" horiz-adv-x="1665" d="M0 0v0v0v0v0v0v0v0v0v0v0v0v0v0v0z" />
<glyph unicode="&#x39e;" d="M0 0v0v0v0v0zM0 0v0v0v0v0zM0 0v0v0v0v0z" />
<glyph unicode="&#x39f;" horiz-adv-x="1630" d="M0 0v0v0v0v0v0v0v0v0zM0 0v0v0v0v0v0v0z" />
<glyph unicode="&#x3a0;" horiz-adv-x="1526" d="M0 0v0v0v0v0v0v0v0v0z" />
<glyph unicode="&#x3a1;" horiz-adv-x="1286" d="M0 0v0v0v0v0v0v0v0zM0 0v0v0v0v0v0v0v0v0v0z" />
<glyph unicode="&#x3a3;" horiz-adv-x="1214" d="M0 0v0v0v0v0v0v0v0v0v0v0v0v0v0v0z" />
<glyph unicode="&#x3a4;" horiz-adv-x="1186" d="M0 0v0v0v0v0v0v0v0v0z" />
<glyph unicode="&#x3a5;" horiz-adv-x="1278" d="M0 0v0v0v0v0v0v0v0v0v0z" />
<glyph unicode="&#x3a6;" horiz-adv-x="1761" d="M0 0v0v0v0v0v0v0v0zM0 0v0v0v0v0v0v0v0v0v0v0v0v0v0v0v0v0v0v0v0v0v0v0zM0 0v0v0v0v0v0v0v0z" />
<glyph unicode="&#x3a7;" horiz-adv-x="1366" d="M0 0v0v0v0v0v0v0v0v0v0v0v0v0z" />
<glyph unicode="&#x3a8;" horiz-adv-x="1794" d="M0 0v0v0v0v0v0v0v0v0v0v0v0v0v0v0v0v0v0v0v0v0v0v0v0v0z" />
<glyph unicode="&#x3a9;" horiz-adv-x="1610" d="M0 0v0v0v0v0v0v0v0v0v0v0v0v0v0v0v0v0v0v0v0v0v0v0v0v0v0z" />
<glyph unicode="&#x3aa;" horiz-adv-x="678" d="M0 0v0v0v0v0zM0 0v0v0v0v0v0v0v0v0zM0 0v0v0v0v0v0v0v0v0z" />
<glyph unicode="&#x3ab;" horiz-adv-x="1278" d="M0 0v0v0v0v0v0v0v0v0v0zM0 0v0v0v0v0v0v0v0v0zM0 0v0v0v0v0v0v0v0v0z" />
<glyph unicode="&#x3ac;" horiz-adv-x="1325" d="M0 0v0v0v0v0v0v0v0v0zM0 0v0v0v0v0v0v0v0v0v0v0v0v0v0v0v0v0v0v0v0v0v0zM0 0v0v0v0v0v0v0v0z" />
<glyph unicode="&#x3ad;" horiz-adv-x="1137" d="M0 0v0v0v0v0v0v0v0v0v0v0v0v0v0v0v0v0v0v0v0v0v0v0v0v0v0v0v0zM0 0v0v0v0v0v0v0v0z" />
<glyph unicode="&#x3ae;" horiz-adv-x="1346" d="M0 0v0v0v0v0v0v0v0v0v0v0v0v0v0v0v0v0v0zM0 0v0v0v0v0v0v0v0z" />
<glyph unicode="&#x3af;" horiz-adv-x="834" d="M0 0v0v0v0v0v0v0v0v0v0v0zM0 0v0v0v0v0v0v0v0z" />
<glyph unicode="&#x3b0;" horiz-adv-x="1321" d="M0 0v0v0v0v0v0v0v0v0v0v0v0v0v0v0v0v0zM0 0v0v0v0v0v0v0v0v0zM0 0v0v0v0v0v0v0v0zM0 0v0v0v0v0v0v0v0z" />
<glyph unicode="&#x3b1;" horiz-adv-x="1325" d="M0 0v0v0v0v0v0v0v0v0zM0 0v0v0v0v0v0v0v0v0v0v0v0v0v0v0v0v0v0v0v0v0v0z" />
<glyph unicode="&#x3b2;" horiz-adv-x="1352" d="M0 0v0v0v0v0v0v0v0v0v0v0v0v0v0v0v0zM0 0v0v0v0v0v0v0v0v0v0v0v0v0v0v0v0z" />
<glyph unicode="&#x3b3;" horiz-adv-x="1163" d="M0 0v0v0v0v0v0v0v0v0v0v0v0v0v0v0v0v0z" />
<glyph unicode="&#x3b4;" horiz-adv-x="1268" d="M0 0v0v0v0v0v0v0v0v0v0v0v0v0v0v0v0v0v0v0v0v0zM0 0v0v0v0v0v0v0v0v0z" />
<glyph unicode="&#x3b5;" horiz-adv-x="1137" d="M0 0v0v0v0v0v0v0v0v0v0v0v0v0v0v0v0v0v0v0v0v0v0v0v0v0v0v0v0z" />
<glyph unicode="&#x3b6;" horiz-adv-x="1020" d="M0 0v0v0v0v0v0v0v0v0v0v0v0v0v0v0v0v0v0v0v0v0v0v0v0v0z" />
<glyph unicode="&#x3b7;" horiz-adv-x="1346" d="M0 0v0v0v0v0v0v0v0v0v0v0v0v0v0v0v0v0v0z" />
<glyph unicode="&#x3b8;" horiz-adv-x="1266" d="M0 0v0v0v0v0v0v0v0v0zM0 0v0v0v0v0v0zM0 0v0v0v0v0v0z" />
<glyph unicode="&#x3b9;" horiz-adv-x="834" d="M0 0v0v0v0v0v0v0v0v0v0v0z" />
<glyph unicode="&#x3ba;" horiz-adv-x="1270" d="M0 0v0v0v0v0v0v0v0v0v0v0v0v0v0v0v0v0z" />
<glyph unicode="&#x3bb;" horiz-adv-x="1260" d="M0 0v0v0v0v0v0v0v0v0v0v0v0v0v0v0v0v0v0v0v0v0v0v0v0v0v0z" />
<glyph unicode="&#x3bc;" horiz-adv-x="1352" d="M0 0v0v0v0v0v0v0v0v0v0v0v0v0v0v0v0v0v0v0v0v0v0z" />
<glyph unicode="&#x3bd;" horiz-adv-x="1219" d="M0 0v0v0v0v0v0v0v0v0v0v0v0v0z" />
<glyph unicode="&#x3be;" horiz-adv-x="1020" d="M0 0v0v0v0v0v0v0v0v0v0v0v0v0v0v0v0v0v0v0v0v0v0v0v0v0v0v0v0v0v0v0v0v0v0v0z" />
<glyph unicode="&#x3bf;" horiz-adv-x="1268" d="M0 0v0v0v0v0v0v0v0v0zM0 0v0v0v0v0v0v0v0v0v0v0z" />
<glyph unicode="&#x3c0;" horiz-adv-x="1513" d="M0 0v0v0v0v0v0v0v0v0v0v0v0v0v0v0v0v0v0v0v0v0z" />
<glyph unicode="&#x3c1;" horiz-adv-x="1266" d="M0 0v0v0v0v0v0v0v0v0v0v0v0v0v0zM0 0v0v0v0v0v0v0v0v0v0z" />
<glyph unicode="&#x3c2;" horiz-adv-x="1020" d="M0 0v0v0v0v0v0v0v0v0v0v0v0v0v0v0v0v0v0v0v0z" />
<glyph unicode="&#x3c3;" horiz-adv-x="1337" d="M0 0v0v0v0v0v0v0v0v0v0v0zM0 0v0v0v0v0v0v0v0v0v0z" />
<glyph unicode="&#x3c4;" horiz-adv-x="1102" d="M0 0v0v0v0v0v0v0v0v0v0v0v0v0v0v0v0z" />
<glyph unicode="&#x3c5;" horiz-adv-x="1321" d="M0 0v0v0v0v0v0v0v0v0v0v0v0v0v0v0v0v0z" />
<glyph unicode="&#x3c6;" horiz-adv-x="1622" d="M0 0v0v0v0v0v0v0v0zM0 0v0v0v0v0v0v0v0v0v0v0v0v0v0v0v0v0v0v0v0z" />
<glyph unicode="&#x3c7;" horiz-adv-x="1212" d="M0 0v0v0v0v0v0v0v0v0v0v0v0v0v0v0v0v0v0v0v0v0v0v0v0v0v0z" />
<glyph unicode="&#x3c8;" horiz-adv-x="1714" d="M0 0v0v0v0v0v0v0v0v0v0v0v0v0v0v0v0v0v0v0v0v0z" />
<glyph unicode="&#x3c9;" horiz-adv-x="1767" d="M0 0v0v0v0v0v0v0v0v0v0v0v0v0v0v0v0v0v0v0v0v0v0v0v0v0v0v0v0v0z" />
<glyph unicode="&#x3ca;" horiz-adv-x="834" d="M0 0v0v0v0v0v0v0v0v0v0v0zM0 0v0v0v0v0v0v0v0v0zM0 0v0v0v0v0v0v0v0v0z" />
<glyph unicode="&#x3cb;" horiz-adv-x="1321" d="M0 0v0v0v0v0v0v0v0v0v0v0v0v0v0v0v0v0zM0 0v0v0v0v0v0v0v0v0zM0 0v0v0v0v0v0v0v0v0z" />
<glyph unicode="&#x3cc;" horiz-adv-x="1268" d="M0 0v0v0v0v0v0v0v0v0zM0 0v0v0v0v0v0v0v0v0v0v0zM0 0v0v0v0v0v0v0v0z" />
<glyph unicode="&#x3cd;" horiz-adv-x="1321" d="M0 0v0v0v0v0v0v0v0v0v0v0v0v0v0v0v0v0zM0 0v0v0v0v0v0v0v0z" />
<glyph unicode="&#x3ce;" horiz-adv-x="1767" d="M0 0v0v0v0v0v0v0v0v0v0v0v0v0v0v0v0v0v0v0v0v0v0v0v0v0v0v0v0v0zM0 0v0v0v0v0v0v0v0z" />
<glyph unicode="&#x3d1;" horiz-adv-x="1499" d="M0 0v0v0v0v0v0v0zM0 0v0v0v0v0v0v0v0v0v0v0v0v0v0v0v0v0v0v0v0v0v0v0v0v0v0v0v0v0v0v0v0v0v0z" />
<glyph unicode="&#x3d2;" horiz-adv-x="1292" d="M0 0v0v0v0v0v0v0v0v0v0v0v0v0v0v0v0v0v0z" />
<glyph unicode="&#x3d6;" horiz-adv-x="2046" d="M0 0v0v0v0v0v0v0v0v0v0v0v0v0v0v0v0zM0 0v0v0v0v0v0v0v0v0v0v0v0v0v0v0z" />
<glyph unicode="&#x400;" horiz-adv-x="1147" d="M0 0v0v0v0v0v0v0v0v0v0v0v0v0zM0 0v0v0v0v0v0v0v0z" />
<glyph unicode="&#x401;" horiz-adv-x="1147" d="M0 0v0v0v0v0v0v0v0v0v0v0v0v0zM0 0v0v0v0v0v0v0v0v0zM0 0v0v0v0v0v0v0v0v0z" />
<glyph unicode="&#x402;" horiz-adv-x="1649" d="M0 0v0v0v0v0v0v0v0v0v0v0v0v0v0v0v0v0v0v0v0v0v0v0v0v0v0z" />
<glyph unicode="&#x403;" horiz-adv-x="1149" d="M0 0v0v0v0v0v0v0zM0 0v0v0v0v0v0v0v0z" />
<glyph unicode="&#x404;" horiz-adv-x="1386" d="M0 0v0v0v0v0v0v0v0v0v0v0v0v0v0v0v0v0v0v0v0v0v0z" />
<glyph unicode="&#x405;" horiz-adv-x="1128" d="M0 0v0v0v0v0v0v0v0v0v0v0v0v0v0v0v0v0v0v0v0v0v0v0v0v0v0v0v0v0z" />
<glyph unicode="&#x406;" horiz-adv-x="678" d="M0 0v0v0v0v0z" />
<glyph unicode="&#x407;" horiz-adv-x="678" d="M0 0v0v0v0v0zM0 0v0v0v0v0v0v0v0v0zM0 0v0v0v0v0v0v0v0v0z" />
<glyph unicode="&#x408;" horiz-adv-x="678" d="M0 0v0v0v0v0v0v0v0v0v0v0z" />
<glyph unicode="&#x409;" horiz-adv-x="2046" d="M0 0v0v0v0v0v0v0v0v0v0v0v0v0v0v0v0v0v0v0v0v0v0zM0 0v0v0v0v0v0v0v0z" />
<glyph unicode="&#x40a;" horiz-adv-x="2052" d="M0 0v0v0v0v0v0v0v0v0v0v0v0v0v0v0v0v0v0zM0 0v0v0v0v0v0v0v0z" />
<glyph unicode="&#x40b;" horiz-adv-x="1649" d="M0 0v0v0v0v0v0v0v0v0v0v0v0v0v0v0v0v0v0v0z" />
<glyph unicode="&#x40c;" horiz-adv-x="1376" d="M0 0v0v0v0v0v0v0v0v0v0v0v0zM0 0v0v0v0v0v0v0v0z" />
<glyph unicode="&#x40d;" horiz-adv-x="1686" d="M0 0v0v0v0v0v0v0v0v0v0v0v0v0v0v0v0zM0 0v0v0v0v0v0v0v0z" />
<glyph unicode="&#x40e;" horiz-adv-x="1337" d="M0 0v0v0v0v0v0v0v0v0v0v0v0v0v0v0v0v0zM0 0v0v0v0v0v0v0v0v0v0v0z" />
<glyph unicode="&#x40f;" horiz-adv-x="1526" d="M0 0v0v0v0v0v0v0v0v0v0v0v0v0z" />
<glyph unicode="&#x410;" horiz-adv-x="1413" d="M0 0v0v0v0v0v0v0v0v0zM0 0v0v0v0v0z" />
<glyph unicode="&#x411;" horiz-adv-x="1307" d="M0 0v0v0v0v0v0v0v0v0v0v0zM0 0v0v0v0v0v0v0v0z" />
<glyph unicode="&#x412;" horiz-adv-x="1376" d="M0 0v0v0v0v0v0v0v0v0v0v0v0v0zM0 0v0v0v0v0v0v0v0zM0 0v0v0v0v0v0v0z" />
<glyph unicode="&#x413;" horiz-adv-x="1149" d="M0 0v0v0v0v0v0v0z" />
<glyph unicode="&#x414;" horiz-adv-x="1565" d="M0 0v0v0v0v0v0v0v0v0v0v0v0v0v0zM0 0v0v0v0v0v0z" />
<glyph unicode="&#x415;" horiz-adv-x="1147" d="M0 0v0v0v0v0v0v0v0v0v0v0v0v0z" />
<glyph unicode="&#x416;" horiz-adv-x="1931" d="M0 0v0v0v0v0v0v0v0v0v0v0v0v0v0v0v0v0v0v0z" />
<glyph unicode="&#x417;" horiz-adv-x="1327" d="M0 0v0v0v0v0v0v0v0v0v0v0v0v0v0v0v0v0v0v0v0v0v0v0v0v0v0v0v0z" />
<glyph unicode="&#x418;" horiz-adv-x="1686" d="M0 0v0v0v0v0v0v0v0v0v0v0v0v0v0v0v0z" />
<glyph unicode="&#x419;" horiz-adv-x="1686" d="M0 0v0v0v0v0v0v0v0v0v0v0v0v0v0v0v0zM0 0v0v0v0v0v0v0v0v0v0v0z" />
<glyph unicode="&#x41a;" horiz-adv-x="1376" d="M0 0v0v0v0v0v0v0v0v0v0v0v0z" />
<glyph unicode="&#x41b;" horiz-adv-x="1526" d="M0 0v0v0v0v0v0v0v0v0v0v0v0v0v0v0v0v0z" />
<glyph unicode="&#x41c;" horiz-adv-x="1931" d="M0 0v0v0v0v0v0v0v0v0v0v0v0v0v0v0v0v0v0v0v0z" />
<glyph unicode="&#x41d;" horiz-adv-x="1567" d="M0 0v0v0v0v0v0v0v0v0v0v0v0v0z" />
<glyph unicode="&#x41e;" horiz-adv-x="1630" d="M0 0v0v0v0v0v0v0v0v0zM0 0v0v0v0v0v0v0z" />
<glyph unicode="&#x41f;" horiz-adv-x="1526" d="M0 0v0v0v0v0v0v0v0v0z" />
<glyph unicode="&#x420;" horiz-adv-x="1286" d="M0 0v0v0v0v0v0v0v0zM0 0v0v0v0v0v0v0v0v0v0z" />
<glyph unicode="&#x421;" horiz-adv-x="1305" d="M0 0v0v0v0v0v0v0v0v0v0v0v0v0v0v0v0z" />
<glyph unicode="&#x422;" horiz-adv-x="1186" d="M0 0v0v0v0v0v0v0v0v0z" />
<glyph unicode="&#x423;" horiz-adv-x="1337" d="M0 0v0v0v0v0v0v0v0v0v0v0v0v0v0v0v0v0z" />
<glyph unicode="&#x424;" horiz-adv-x="1761" d="M0 0v0v0v0v0v0v0v0zM0 0v0v0v0v0v0v0v0v0v0v0v0v0v0v0v0v0v0v0v0v0v0v0zM0 0v0v0v0v0v0v0v0z" />
<glyph unicode="&#x425;" horiz-adv-x="1366" d="M0 0v0v0v0v0v0v0v0v0v0v0v0v0z" />
<glyph unicode="&#x426;" horiz-adv-x="1599" d="M0 0v0v0v0v0v0v0v0v0v0v0v0v0z" />
<glyph unicode="&#x427;" horiz-adv-x="1491" d="M0 0v0v0v0v0v0v0v0v0v0v0v0v0v0v0v0v0z" />
<glyph unicode="&#x428;" horiz-adv-x="2208" d="M0 0v0v0v0v0v0v0v0v0v0v0v0v0z" />
<glyph unicode="&#x429;" horiz-adv-x="2281" d="M0 0v0v0v0v0v0v0v0v0v0v0v0v0v0v0v0v0zM0 0z" />
<glyph unicode="&#x42a;" horiz-adv-x="1489" d="M0 0v0v0v0v0v0v0v0v0v0v0v0zM0 0v0v0v0v0v0v0v0z" />
<glyph unicode="&#x42b;" horiz-adv-x="1855" d="M0 0v0v0v0v0v0v0v0v0v0zM0 0v0v0v0v0v0v0v0zM0 0v0v0v0v0z" />
<glyph unicode="&#x42c;" horiz-adv-x="1307" d="M0 0v0v0v0v0v0v0v0v0zM0 0v0v0v0v0v0v0v0z" />
<glyph unicode="&#x42d;" horiz-adv-x="1358" d="M0 0v0v0v0v0v0v0v0v0v0v0v0v0v0v0v0v0v0v0z" />
<glyph unicode="&#x42e;" horiz-adv-x="2191" d="M0 0v0v0v0v0v0v0v0v0v0v0v0v0v0v0v0zM0 0v0v0v0v0v0v0v0z" />
<glyph unicode="&#x42f;" horiz-adv-x="1362" d="M0 0v0v0v0v0v0v0v0v0v0v0v0v0zM0 0v0v0v0v0v0v0v0z" />
<glyph unicode="&#x430;" horiz-adv-x="1237" d="M0 0v0v0v0v0v0v0v0v0v0v0v0v0v0v0v0v0v0v0zM0 0v0v0v0v0v0v0v0z" />
<glyph unicode="&#x431;" horiz-adv-x="1274" d="M0 0v0v0v0v0v0v0v0v0v0v0v0v0v0v0v0v0v0zM0 0v0v0v0v0v0v0v0z" />
<glyph unicode="&#x432;" horiz-adv-x="1309" d="M0 0v0v0v0v0v0v0v0v0v0v0v0v0zM0 0v0v0v0v0v0v0v0zM0 0v0v0v0v0v0v0z" />
<glyph unicode="&#x433;" horiz-adv-x="979" d="M0 0v0v0v0v0v0v0z" />
<glyph unicode="&#x434;" horiz-adv-x="1360" d="M0 0v0v0v0v0v0zM0 0v0v0v0v0v0v0v0v0v0v0v0v0v0z" />
<glyph unicode="&#x435;" horiz-adv-x="1210" d="M0 0v0v0v0v0v0zM0 0v0v0v0v0v0v0v0v0v0v0v0v0v0v0v0z" />
<glyph unicode="&#x436;" horiz-adv-x="1788" d="M0 0v0v0v0v0v0v0v0v0v0v0v0v0v0v0v0v0v0v0z" />
<glyph unicode="&#x437;" horiz-adv-x="1137" d="M0 0v0v0v0v0v0v0v0v0v0v0v0v0v0v0v0v0v0v0v0v0v0v0v0v0v0v0v0v0v0z" />
<glyph unicode="&#x438;" horiz-adv-x="1475" d="M0 0v0v0v0v0v0v0v0v0v0v0v0v0z" />
<glyph unicode="&#x439;" horiz-adv-x="1475" d="M0 0v0v0v0v0v0v0v0v0v0v0v0v0zM0 0v0v0v0v0v0v0v0v0v0v0z" />
<glyph unicode="&#x43a;" horiz-adv-x="1268" d="M0 0v0v0v0v0v0v0v0v0v0v0v0z" />
<glyph unicode="&#x43b;" horiz-adv-x="1321" d="M0 0v0v0v0v0v0v0v0v0v0v0v0v0v0v0z" />
<glyph unicode="&#x43c;" horiz-adv-x="1729" d="M0 0v0v0v0v0v0v0v0v0v0v0v0v0v0v0v0v0v0v0v0v0v0z" />
<glyph unicode="&#x43d;" horiz-adv-x="1356" d="M0 0v0v0v0v0v0v0v0v0v0v0v0v0z" />
<glyph unicode="&#x43e;" horiz-adv-x="1268" d="M0 0v0v0v0v0v0v0v0v0zM0 0v0v0v0v0v0v0v0v0v0v0z" />
<glyph unicode="&#x43f;" horiz-adv-x="1335" d="M0 0v0v0v0v0v0v0v0v0z" />
<glyph unicode="&#x440;" horiz-adv-x="1296" d="M0 0v0v0v0v0v0v0v0v0v0v0v0v0v0v0v0zM0 0v0v0v0v0v0v0v0v0z" />
<glyph unicode="&#x441;" horiz-adv-x="1053" d="M0 0v0v0v0v0v0v0v0v0v0v0v0v0v0v0z" />
<glyph unicode="&#x442;" horiz-adv-x="1133" d="M0 0v0v0v0v0v0v0v0v0z" />
<glyph unicode="&#x443;" horiz-adv-x="1165" d="M0 0v0v0v0v0v0v0v0v0v0v0v0v0v0v0v0v0v0z" />
<glyph unicode="&#x444;" horiz-adv-x="1667" d="M0 0v0v0v0v0v0v0v0v0v0v0v0v0v0v0zM0 0v0v0v0v0v0zM0 0v0v0v0v0v0z" />
<glyph unicode="&#x445;" horiz-adv-x="1184" d="M0 0v0v0v0v0v0v0v0v0v0v0v0v0z" />
<glyph unicode="&#x446;" horiz-adv-x="1409" d="M0 0v0v0v0v0v0v0v0v0v0v0v0v0z" />
<glyph unicode="&#x447;" horiz-adv-x="1343" d="M0 0v0v0v0v0v0v0v0v0v0v0v0v0v0v0v0z" />
<glyph unicode="&#x448;" horiz-adv-x="1985" d="M0 0v0v0v0v0v0v0v0v0v0v0v0v0z" />
<glyph unicode="&#x449;" horiz-adv-x="2017" d="M0 0v0v0v0v0v0v0v0v0v0v0v0v0v0v0v0v0zM0 0z" />
<glyph unicode="&#x44a;" horiz-adv-x="1454" d="M0 0v0v0v0v0v0v0v0v0v0v0zM0 0v0v0v0v0v0v0z" />
<glyph unicode="&#x44b;" horiz-adv-x="1741" d="M0 0v0v0v0v0v0v0v0v0v0zM0 0v0v0v0v0v0v0zM0 0v0v0v0v0z" />
<glyph unicode="&#x44c;" horiz-adv-x="1257" d="M0 0v0v0v0v0v0v0v0v0zM0 0v0v0v0v0v0v0z" />
<glyph unicode="&#x44d;" horiz-adv-x="1049" d="M0 0v0v0v0v0v0v0v0v0v0v0v0v0v0v0v0v0v0v0z" />
<glyph unicode="&#x44e;" horiz-adv-x="1796" d="M0 0v0v0v0v0v0v0v0v0v0v0v0v0v0v0v0zM0 0v0v0v0v0v0v0v0v0z" />
<glyph unicode="&#x44f;" horiz-adv-x="1214" d="M0 0v0v0v0v0v0v0v0v0v0v0v0v0zM0 0v0v0v0v0v0v0v0z" />
<glyph unicode="&#x450;" horiz-adv-x="1210" d="M0 0v0v0v0v0v0zM0 0v0v0v0v0v0v0v0v0v0v0v0v0v0v0v0zM0 0v0v0v0v0v0v0v0z" />
<glyph unicode="&#x451;" horiz-adv-x="1210" d="M0 0v0v0v0v0v0zM0 0v0v0v0v0v0v0v0v0v0v0v0v0v0v0v0zM0 0v0v0v0v0v0v0v0v0zM0 0v0v0v0v0v0v0v0v0z" />
<glyph unicode="&#x452;" horiz-adv-x="1346" d="M0 0v0v0v0v0v0v0v0v0v0v0v0v0v0v0v0v0v0v0v0v0v0v0v0v0v0v0v0v0v0v0z" />
<glyph unicode="&#x453;" horiz-adv-x="979" d="M0 0v0v0v0v0v0v0zM0 0v0v0v0v0v0v0v0z" />
<glyph unicode="&#x454;" horiz-adv-x="1073" d="M0 0v0v0v0v0v0v0v0v0v0v0v0v0v0v0v0v0v0v0z" />
<glyph unicode="&#x455;" horiz-adv-x="1018" d="M0 0v0v0v0v0v0v0v0v0v0v0v0v0v0v0v0v0v0v0v0v0v0v0v0v0v0v0z" />
<glyph unicode="&#x456;" horiz-adv-x="625" d="M0 0v0v0v0v0v0zM0 0v0v0v0v0z" />
<glyph unicode="&#x457;" horiz-adv-x="625" d="M0 0v0v0v0v0zM0 0v0v0v0v0v0v0v0v0zM0 0v0v0v0v0v0v0v0v0z" />
<glyph unicode="&#x458;" horiz-adv-x="625" d="M0 0v0v0v0v0v0v0v0v0v0v0zM0 0v0v0v0v0v0z" />
<glyph unicode="&#x459;" horiz-adv-x="1819" d="M0 0v0v0v0v0v0v0v0v0v0v0v0v0v0v0v0v0v0v0zM0 0v0v0v0v0v0v0z" />
<glyph unicode="&#x45a;" horiz-adv-x="1819" d="M0 0v0v0v0v0v0v0v0v0v0v0v0v0v0v0v0v0zM0 0v0v0v0v0v0v0z" />
<glyph unicode="&#x45b;" horiz-adv-x="1346" d="M0 0v0v0v0v0v0v0v0v0v0v0v0v0v0v0v0v0v0v0v0v0v0v0v0v0z" />
<glyph unicode="&#x45c;" horiz-adv-x="1268" d="M0 0v0v0v0v0v0v0v0v0v0v0v0zM0 0v0v0v0v0v0v0v0z" />
<glyph unicode="&#x45d;" horiz-adv-x="1475" d="M0 0v0v0v0v0v0v0v0v0v0v0v0v0zM0 0v0v0v0v0v0v0v0z" />
<glyph unicode="&#x45e;" horiz-adv-x="1165" d="M0 0v0v0v0v0v0v0v0v0v0v0v0v0v0v0v0v0v0zM0 0v0v0v0v0v0v0v0v0v0v0z" />
<glyph unicode="&#x45f;" horiz-adv-x="1376" d="M0 0v0v0v0v0v0v0v0v0v0v0v0v0z" />
<glyph unicode="&#x460;" horiz-adv-x="2228" d="M0 0v0v0v0v0v0v0v0v0v0v0v0v0v0v0v0v0v0v0v0v0v0v0v0v0v0v0v0v0v0v0v0v0v0v0v0z" />
<glyph unicode="&#x461;" horiz-adv-x="1812" d="M0 0v0v0v0v0v0v0v0v0v0v0v0v0v0v0v0v0v0v0v0v0v0z" />
<glyph unicode="&#x462;" horiz-adv-x="1378" d="M0 0v0v0v0v0v0v0v0v0v0v0v0v0v0v0v0v0zM0 0v0v0v0v0v0v0v0z" />
<glyph unicode="&#x463;" horiz-adv-x="1356" d="M0 0v0v0v0v0v0v0v0v0v0v0v0v0v0v0v0v0zM0 0v0v0v0v0v0v0z" />
<glyph unicode="&#x464;" horiz-adv-x="1946" d="M0 0v0v0v0v0v0v0v0v0v0v0v0v0v0v0v0v0v0v0v0v0v0v0v0v0v0v0v0z" />
<glyph unicode="&#x465;" horiz-adv-x="1638" d="M0 0v0v0v0v0v0v0v0v0v0v0v0v0v0v0v0v0v0v0v0v0v0v0v0v0v0z" />
<glyph unicode="&#x466;" horiz-adv-x="1495" d="M0 0v0v0v0v0v0v0v0v0v0v0v0v0zM0 0v0v0v0z" />
<glyph unicode="&#x467;" horiz-adv-x="1311" d="M0 0v0v0v0v0v0v0v0v0v0v0v0v0zM0 0v0v0v0v0z" />
<glyph unicode="&#x468;" horiz-adv-x="2058" d="M0 0v0v0v0v0v0v0v0v0v0v0v0v0v0v0v0v0v0v0v0v0zM0 0v0v0v0v0z" />
<glyph unicode="&#x469;" horiz-adv-x="1847" d="M0 0v0v0v0v0v0v0v0v0v0v0v0v0v0v0v0v0v0v0v0v0zM0 0v0v0v0z" />
<glyph unicode="&#x46a;" horiz-adv-x="1647" d="M0 0v0v0v0v0v0v0v0v0v0v0v0v0v0v0v0v0v0v0v0v0v0v0zM0 0v0v0v0z" />
<glyph unicode="&#x46b;" horiz-adv-x="1276" d="M0 0v0v0v0v0v0v0v0v0v0v0v0v0v0v0v0v0v0v0v0v0v0v0zM0 0v0v0v0z" />
<glyph unicode="&#x46c;" horiz-adv-x="2198" d="M0 0v0v0v0v0v0v0v0v0v0v0v0v0v0v0v0v0v0v0v0v0v0v0v0v0v0v0v0v0zM0 0v0v0v0zM0 0z" />
<glyph unicode="&#x46d;" horiz-adv-x="1802" d="M0 0v0v0v0v0v0v0v0v0v0v0v0v0v0v0v0v0v0v0v0v0v0v0v0v0v0v0v0v0zM0 0v0v0v0zM0 0z" />
<glyph unicode="&#x46e;" horiz-adv-x="1294" d="M0 0v0v0v0v0v0v0v0v0v0v0v0v0v0v0v0v0v0v0v0v0v0v0v0v0v0v0v0v0v0v0v0v0v0v0v0v0v0v0v0v0v0v0v0v0v0v0v0v0v0v0v0z" />
<glyph unicode="&#x46f;" horiz-adv-x="1137" d="M0 0v0v0v0v0v0v0v0v0v0v0v0v0v0v0v0v0v0v0v0v0v0v0v0v0v0v0v0v0v0v0v0v0v0v0v0v0v0v0v0v0v0v0v0v0v0v0v0v0v0v0v0v0v0z" />
<glyph unicode="&#x470;" horiz-adv-x="1794" d="M0 0v0v0v0v0v0v0v0v0v0v0v0v0v0v0v0v0v0v0v0v0v0v0v0v0z" />
<glyph unicode="&#x471;" horiz-adv-x="1714" d="M0 0v0v0v0v0v0v0v0v0v0v0v0v0v0v0v0v0v0v0v0v0z" />
<glyph unicode="&#x472;" horiz-adv-x="1630" d="M0 0v0v0v0v0v0v0v0v0zM0 0v0v0v0v0v0zM0 0v0v0v0v0v0z" />
<glyph unicode="&#x473;" horiz-adv-x="1268" d="M0 0v0v0v0v0v0v0v0v0v0v0zM0 0v0v0v0v0v0zM0 0v0v0v0v0v0z" />
<glyph unicode="&#x474;" horiz-adv-x="1468" d="M0 0v0v0v0v0v0v0v0v0v0v0v0v0v0v0v0v0z" />
<glyph unicode="&#x475;" horiz-adv-x="1239" d="M0 0v0v0v0v0v0v0v0v0v0v0v0v0v0v0v0v0v0z" />
<glyph unicode="&#x476;" horiz-adv-x="1468" d="M0 0v0v0v0v0v0v0v0v0v0v0v0v0v0v0v0v0zM0 0v0v0v0v0v0v0v0v0zM0 0v0v0v0v0v0v0v0v0z" />
<glyph unicode="&#x477;" horiz-adv-x="1239" d="M0 0v0v0v0v0v0v0v0v0v0v0v0v0v0v0v0v0v0zM0 0v0v0v0v0v0v0v0v0zM0 0v0v0v0v0v0v0v0v0z" />
<glyph unicode="&#x478;" horiz-adv-x="2701" d="M0 0v0v0v0v0v0v0v0v0v0v0v0v0v0v0v0v0v0zM0 0v0v0v0v0v0v0v0v0zM0 0v0v0v0v0v0v0v0v0z" />
<glyph unicode="&#x479;" horiz-adv-x="2345" d="M0 0v0v0v0v0v0v0v0v0v0v0v0v0v0v0v0v0v0zM0 0v0v0v0v0v0v0v0v0zM0 0v0v0v0v0v0v0v0v0v0v0z" />
<glyph unicode="&#x47a;" horiz-adv-x="1712" d="M0 0v0v0v0v0v0v0v0v0v0v0v0v0v0v0zM0 0v0v0v0v0v0v0v0v0v0v0v0z" />
<glyph unicode="&#x47b;" horiz-adv-x="1391" d="M0 0v0v0v0v0v0v0v0v0v0v0v0v0v0v0zM0 0v0v0v0v0v0v0v0v0v0v0v0v0v0v0z" />
<glyph unicode="&#x47c;" horiz-adv-x="2228" d="M0 0v0v0v0v0v0v0v0v0v0v0v0v0v0v0v0v0v0v0v0v0v0v0v0v0v0v0v0v0v0v0v0v0v0v0zM0 0v0v0v0v0v0v0v0v0v0v0v0v0v0v0v0v0v0zM0 0v0v0v0v0v0v0v0v0v0v0v0v0v0z" />
<glyph unicode="&#x47d;" horiz-adv-x="1823" d="M0 0v0v0v0v0v0v0v0v0v0v0v0v0v0v0v0v0v0v0v0v0v0v0v0v0v0v0zM0 0v0v0v0v0v0v0v0v0v0v0v0v0v0v0v0v0v0v0zM0 0v0v0v0v0v0v0v0v0v0v0v0v0v0z" />
<glyph unicode="&#x47e;" horiz-adv-x="2228" d="M0 0v0v0v0v0v0v0v0v0v0v0v0v0v0v0v0v0v0v0v0v0v0v0v0v0v0v0v0v0v0v0v0v0v0v0v0zM0 0v0v0v0v0v0v0v0v0v0v0v0v0v0v0z" />
<glyph unicode="&#x47f;" horiz-adv-x="1812" d="M0 0v0v0v0v0v0v0v0v0v0v0v0v0v0v0v0v0v0v0v0v0v0v0v0v0zM0 0v0v0v0v0v0v0v0v0v0v0v0v0v0v0z" />
<glyph unicode="&#x480;" horiz-adv-x="1386" d="M0 0v0v0v0v0v0v0v0v0v0v0v0v0v0v0v0v0v0z" />
<glyph unicode="&#x481;" horiz-adv-x="1073" d="M0 0v0v0v0v0v0v0v0v0v0v0v0v0v0v0v0z" />
<glyph unicode="&#x482;" horiz-adv-x="1247" d="M0 0v0v0v0v0v0v0v0v0v0v0v0v0v0v0v0v0v0v0v0v0z" />
<glyph unicode="&#x483;" horiz-adv-x="1141" d="M0 0v0v0v0v0v0v0v0v0v0v0v0z" />
<glyph unicode="&#x484;" horiz-adv-x="1182" d="M0 0v0v0v0v0v0v0v0v0v0v0v0v0v0v0v0v0v0z" />
<glyph unicode="&#x485;" horiz-adv-x="1182" d="M0 0v0v0v0v0v0v0v0v0v0v0v0v0v0z" />
<glyph unicode="&#x486;" horiz-adv-x="1182" d="M0 0v0v0v0v0v0v0v0v0v0v0v0v0v0z" />
<glyph unicode="&#x488;" horiz-adv-x="2025" d="M0 0v0v0v0v0v0v0v0v0v0zM0 0v0v0v0v0v0v0v0v0v0v0zM0 0v0v0v0v0v0v0v0v0v0v0zM0 0v0v0v0v0v0v0v0v0v0v0zM0 0v0v0v0v0v0v0v0v0v0v0zM0 0v0v0v0v0v0v0v0v0v0v0zM0 0v0v0v0v0v0v0v0v0v0zM0 0v0v0v0v0v0v0v0v0v0v0z" />
<glyph unicode="&#x489;" horiz-adv-x="1958" d="M0 0v0v0v0v0v0v0zM0 0v0v0v0v0v0v0zM0 0v0v0v0v0v0v0zM0 0v0v0v0v0v0v0zM0 0v0v0v0v0v0v0zM0 0v0v0v0v0v0zM0 0v0v0v0v0v0zM0 0v0v0v0v0v0v0v0z" />
<glyph unicode="&#x48a;" horiz-adv-x="1876" d="M0 0v0v0v0v0v0v0v0v0v0v0v0v0v0v0v0v0v0v0v0zM0 0v0v0v0v0v0v0v0v0v0v0zM0 0z" />
<glyph unicode="&#x48b;" horiz-adv-x="1642" d="M0 0v0v0v0v0v0v0v0v0v0v0v0v0v0v0v0v0zM0 0v0v0v0v0v0v0v0v0v0v0v0zM0 0z" />
<glyph unicode="&#x48c;" horiz-adv-x="1262" d="M0 0v0v0v0v0v0v0v0v0v0v0v0v0v0v0v0v0zM0 0v0v0v0v0v0v0v0z" />
<glyph unicode="&#x48d;" horiz-adv-x="1257" d="M0 0v0v0v0v0v0v0v0v0v0v0v0v0v0v0v0v0zM0 0v0v0v0v0v0v0z" />
<glyph unicode="&#x48e;" horiz-adv-x="1286" d="M0 0v0v0v0v0v0v0v0v0v0v0v0v0v0zM0 0v0v0v0v0v0v0v0v0v0v0z" />
<glyph unicode="&#x48f;" horiz-adv-x="1296" d="M0 0v0v0v0v0v0v0v0v0v0v0v0v0v0v0v0v0v0v0zM0 0v0v0v0v0v0v0v0v0v0v0v0v0v0z" />
<glyph unicode="&#x490;" horiz-adv-x="1190" d="M0 0v0v0v0v0v0v0v0v0z" />
<glyph unicode="&#x491;" horiz-adv-x="1049" d="M0 0v0v0v0v0v0v0v0v0z" />
<glyph unicode="&#x492;" horiz-adv-x="1145" d="M0 0v0v0v0v0v0v0v0v0v0v0v0v0v0v0z" />
<glyph unicode="&#x493;" horiz-adv-x="1006" d="M0 0v0v0v0v0v0v0v0v0v0v0v0v0v0v0z" />
<glyph unicode="&#x494;" horiz-adv-x="1503" d="M0 0v0v0v0v0v0v0v0v0v0v0v0v0v0v0v0v0v0v0v0v0v0v0v0z" />
<glyph unicode="&#x495;" horiz-adv-x="1233" d="M0 0v0v0v0v0v0v0v0v0v0v0v0v0v0v0v0v0v0v0v0v0v0v0z" />
<glyph unicode="&#x496;" horiz-adv-x="2107" d="M0 0v0v0v0v0v0v0v0v0v0v0v0v0v0v0v0v0v0v0v0v0v0v0zM0 0z" />
<glyph unicode="&#x497;" horiz-adv-x="1929" d="M0 0v0v0v0v0v0v0v0v0v0v0v0v0v0v0v0v0v0v0v0v0v0v0zM0 0z" />
<glyph unicode="&#x498;" horiz-adv-x="1327" d="M0 0v0v0v0v0v0v0v0v0v0v0v0v0v0v0v0v0v0v0v0v0v0v0v0v0v0v0v0zM0 0v0v0v0v0v0v0v0v0v0v0v0v0v0z" />
<glyph unicode="&#x499;" horiz-adv-x="1137" d="M0 0v0v0v0v0v0v0v0v0v0v0v0v0v0v0v0v0v0v0v0v0v0v0v0v0v0v0v0v0v0zM0 0v0v0v0v0v0v0v0v0v0v0v0v0v0z" />
<glyph unicode="&#x49a;" horiz-adv-x="1548" d="M0 0v0v0v0v0v0v0v0v0v0v0v0v0v0v0v0zM0 0z" />
<glyph unicode="&#x49b;" horiz-adv-x="1362" d="M0 0v0v0v0v0v0v0v0v0v0v0v0v0v0v0v0zM0 0z" />
<glyph unicode="&#x49c;" horiz-adv-x="1360" d="M0 0v0v0v0v0v0v0v0v0v0v0v0v0v0v0v0v0v0v0v0v0z" />
<glyph unicode="&#x49d;" horiz-adv-x="1227" d="M0 0v0v0v0v0v0v0v0v0v0v0v0v0v0v0v0v0v0v0v0z" />
<glyph unicode="&#x49e;" horiz-adv-x="1317" d="M0 0v0v0v0v0v0v0v0v0v0v0v0v0v0v0v0v0v0v0v0v0v0z" />
<glyph unicode="&#x49f;" horiz-adv-x="1270" d="M0 0v0v0v0v0v0v0v0v0v0v0v0v0v0v0v0v0v0v0v0v0v0v0v0z" />
<glyph unicode="&#x4a0;" horiz-adv-x="1501" d="M0 0v0v0v0v0v0v0v0v0v0v0v0v0v0v0v0zM0 0z" />
<glyph unicode="&#x4a1;" horiz-adv-x="1423" d="M0 0v0v0v0v0v0v0v0v0v0v0v0v0v0zM0 0z" />
<glyph unicode="&#x4a2;" horiz-adv-x="1722" d="M0 0v0v0v0v0v0v0v0v0v0v0v0v0v0v0v0v0zM0 0z" />
<glyph unicode="&#x4a3;" horiz-adv-x="1522" d="M0 0v0v0v0v0v0v0v0v0v0v0v0v0v0v0v0v0zM0 0z" />
<glyph unicode="&#x4a4;" horiz-adv-x="1708" d="M0 0v0v0v0v0v0v0v0v0v0v0v0v0v0v0zM0 0z" />
<glyph unicode="&#x4a5;" horiz-adv-x="1552" d="M0 0v0v0v0v0v0v0v0v0v0v0v0v0v0v0zM0 0z" />
<glyph unicode="&#x4a6;" horiz-adv-x="2304" d="M0 0v0v0v0v0v0v0v0v0v0v0v0v0v0v0v0v0v0v0v0v0v0v0v0v0v0z" />
<glyph unicode="&#x4a7;" horiz-adv-x="1821" d="M0 0v0v0v0v0v0v0v0v0v0v0v0v0v0v0v0v0v0v0v0v0v0v0v0v0v0z" />
<glyph unicode="&#x4a8;" horiz-adv-x="1591" d="M0 0v0v0v0v0v0v0v0v0v0v0v0v0v0v0v0v0v0v0v0v0v0v0v0v0v0v0zM0 0v0v0v0v0v0v0v0z" />
<glyph unicode="&#x4a9;" horiz-adv-x="1343" d="M0 0v0v0v0v0v0v0v0v0v0v0v0v0v0v0v0v0v0v0v0v0v0v0v0v0v0v0v0zM0 0v0v0v0v0v0z" />
<glyph unicode="&#x4aa;" horiz-adv-x="1305" d="M0 0v0v0v0v0v0v0v0v0v0v0v0v0v0v0v0zM0 0v0v0v0v0v0v0v0v0v0v0v0v0v0z" />
<glyph unicode="&#x4ab;" horiz-adv-x="1053" d="M0 0v0v0v0v0v0v0v0v0v0v0v0v0v0v0zM0 0v0v0v0v0v0v0v0v0v0v0v0v0v0z" />
<glyph unicode="&#x4ac;" horiz-adv-x="1186" d="M0 0v0v0v0v0v0v0v0v0v0v0v0v0z" />
<glyph unicode="&#x4ad;" horiz-adv-x="1126" d="M0 0v0v0v0v0v0v0v0v0v0v0v0v0z" />
<glyph unicode="&#x4ae;" horiz-adv-x="1278" d="M0 0v0v0v0v0v0v0v0v0v0z" />
<glyph unicode="&#x4af;" horiz-adv-x="1176" d="M0 0v0v0v0v0v0v0v0v0v0v0v0v0v0z" />
<glyph unicode="&#x4b0;" horiz-adv-x="1278" d="M0 0v0v0v0v0v0v0v0v0v0v0v0v0v0v0v0v0v0z" />
<glyph unicode="&#x4b1;" horiz-adv-x="1176" d="M0 0v0v0v0v0v0v0v0v0v0v0v0v0v0v0v0v0v0v0v0z" />
<glyph unicode="&#x4b2;" horiz-adv-x="1522" d="M0 0v0v0v0v0v0v0v0v0v0v0v0v0v0v0v0v0zM0 0z" />
<glyph unicode="&#x4b3;" horiz-adv-x="1311" d="M0 0v0v0v0v0v0v0v0v0v0v0v0v0v0v0v0v0zM0 0zM0 0z" />
<glyph unicode="&#x4b4;" horiz-adv-x="1905" d="M0 0v0v0v0v0v0v0v0v0v0v0v0v0v0v0v0v0z" />
<glyph unicode="&#x4b5;" horiz-adv-x="1620" d="M0 0v0v0v0v0v0v0v0v0v0v0v0v0v0v0v0v0z" />
<glyph unicode="&#x4b6;" horiz-adv-x="1647" d="M0 0v0v0v0v0v0v0v0v0v0v0v0v0v0v0v0v0v0v0v0v0zM0 0z" />
<glyph unicode="&#x4b7;" horiz-adv-x="1487" d="M0 0v0v0v0v0v0v0v0v0v0v0v0v0v0v0v0v0v0v0v0zM0 0z" />
<glyph unicode="&#x4b8;" horiz-adv-x="1491" d="M0 0v0v0v0v0v0v0v0v0v0v0v0v0v0v0v0v0v0v0v0v0v0v0z" />
<glyph unicode="&#x4b9;" horiz-adv-x="1343" d="M0 0v0v0v0v0v0v0v0v0v0v0v0v0v0v0v0v0v0v0v0v0v0z" />
<glyph unicode="&#x4ba;" horiz-adv-x="1491" d="M0 0v0v0v0v0v0v0v0v0v0v0v0v0v0v0v0v0z" />
<glyph unicode="&#x4bb;" horiz-adv-x="1364" d="M0 0v0v0v0v0v0v0v0v0v0v0v0v0v0v0z" />
<glyph unicode="&#x4bc;" horiz-adv-x="1942" d="M0 0v0v0v0v0v0v0v0v0v0v0v0v0v0v0v0v0v0v0v0v0v0v0v0v0zM0 0v0v0v0v0v0z" />
<glyph unicode="&#x4bd;" horiz-adv-x="1464" d="M0 0v0v0v0v0v0v0v0v0v0v0v0v0v0v0v0v0v0v0v0v0v0zM0 0v0v0v0v0v0z" />
<glyph unicode="&#x4be;" horiz-adv-x="1942" d="M0 0v0v0v0v0v0v0v0v0v0v0v0v0v0v0v0v0v0v0v0v0v0v0v0v0v0v0v0zM0 0v0v0v0v0v0z" />
<glyph unicode="&#x4bf;" horiz-adv-x="1464" d="M0 0v0v0v0v0v0v0v0v0v0v0v0v0v0v0v0v0v0v0v0v0v0v0v0zM0 0v0v0v0v0v0z" />
<glyph unicode="&#x4c0;" horiz-adv-x="678" d="M0 0v0v0v0v0z" />
<glyph unicode="&#x4c1;" horiz-adv-x="1931" d="M0 0v0v0v0v0v0v0v0v0v0v0v0v0v0v0v0v0v0v0zM0 0v0v0v0v0v0v0v0v0v0v0z" />
<glyph unicode="&#x4c2;" horiz-adv-x="1788" d="M0 0v0v0v0v0v0v0v0v0v0v0v0v0v0v0v0v0v0v0zM0 0v0v0v0v0v0v0v0v0v0v0z" />
<glyph unicode="&#x4c3;" horiz-adv-x="1556" d="M0 0v0v0v0v0v0v0v0v0v0v0v0v0v0v0v0v0v0v0v0v0v0v0v0v0v0z" />
<glyph unicode="&#x4c4;" horiz-adv-x="1354" d="M0 0v0v0v0v0v0v0v0v0v0v0v0v0v0v0v0v0v0v0v0v0v0v0v0z" />
<glyph unicode="&#x4c5;" horiz-adv-x="1716" d="M0 0v0v0v0v0v0v0v0v0v0v0v0v0v0v0v0v0v0v0v0v0zM0 0z" />
<glyph unicode="&#x4c6;" horiz-adv-x="1489" d="M0 0v0v0v0v0v0v0v0v0v0v0v0v0v0v0v0v0v0v0zM0 0z" />
<glyph unicode="&#x4c7;" horiz-adv-x="1567" d="M0 0v0v0v0v0v0v0v0v0v0v0v0v0v0v0v0v0v0v0v0v0z" />
<glyph unicode="&#x4c8;" horiz-adv-x="1356" d="M0 0v0v0v0v0v0v0v0v0v0v0v0v0v0v0v0v0v0v0v0z" />
<glyph unicode="&#x4c9;" horiz-adv-x="1757" d="M0 0v0v0v0v0v0v0v0v0v0v0v0v0v0v0v0v0zM0 0z" />
<glyph unicode="&#x4ca;" horiz-adv-x="1524" d="M0 0v0v0v0v0v0v0v0v0v0v0v0v0v0v0v0v0zM0 0z" />
<glyph unicode="&#x4cb;" horiz-adv-x="1491" d="M0 0v0v0v0v0v0v0v0v0v0v0v0v0v0v0v0v0v0v0v0v0z" />
<glyph unicode="&#x4cc;" horiz-adv-x="1343" d="M0 0v0v0v0v0v0v0v0v0v0v0v0v0v0v0v0v0v0v0v0z" />
<glyph unicode="&#x4cd;" horiz-adv-x="2122" d="M0 0v0v0v0v0v0v0v0v0v0v0v0v0v0v0v0v0v0v0v0v0v0v0v0zM0 0z" />
<glyph unicode="&#x4ce;" horiz-adv-x="1896" d="M0 0v0v0v0v0v0v0v0v0v0v0v0v0v0v0v0v0v0v0v0v0v0v0v0v0v0zM0 0z" />
<glyph unicode="&#x4cf;" horiz-adv-x="678" d="M0 0v0v0v0v0z" />
<glyph unicode="&#x4d0;" horiz-adv-x="1413" d="M0 0v0v0v0v0v0v0v0v0zM0 0v0v0v0v0zM0 0v0v0v0v0v0v0v0v0v0v0z" />
<glyph unicode="&#x4d1;" horiz-adv-x="1237" d="M0 0v0v0v0v0v0v0v0v0v0v0v0v0v0v0v0v0v0v0zM0 0v0v0v0v0v0v0v0zM0 0v0v0v0v0v0v0v0v0v0v0z" />
<glyph unicode="&#x4d2;" horiz-adv-x="1413" d="M0 0v0v0v0v0v0v0v0v0zM0 0v0v0v0v0zM0 0v0v0v0v0v0v0v0v0zM0 0v0v0v0v0v0v0v0v0z" />
<glyph unicode="&#x4d3;" horiz-adv-x="1237" d="M0 0v0v0v0v0v0v0v0v0v0v0v0v0v0v0v0v0v0v0zM0 0v0v0v0v0v0v0v0zM0 0v0v0v0v0v0v0v0v0zM0 0v0v0v0v0v0v0v0v0z" />
<glyph unicode="&#x4d4;" horiz-adv-x="1950" d="M0 0v0v0v0v0v0v0v0v0v0v0v0v0v0v0v0v0zM0 0v0v0v0v0z" />
<glyph unicode="&#x4d5;" horiz-adv-x="1878" d="M0 0v0v0v0v0v0v0v0v0v0v0v0v0v0v0v0v0v0v0v0v0v0v0v0v0v0v0v0v0zM0 0v0v0v0v0v0v0v0zM0 0v0v0v0v0z" />
<glyph unicode="&#x4d6;" horiz-adv-x="1147" d="M0 0v0v0v0v0v0v0v0v0v0v0v0v0zM0 0v0v0v0v0v0v0v0v0v0v0z" />
<glyph unicode="&#x4d7;" horiz-adv-x="1210" d="M0 0v0v0v0v0v0zM0 0v0v0v0v0v0v0v0v0v0v0v0v0v0v0v0zM0 0v0v0v0v0v0v0v0v0v0v0z" />
<glyph unicode="&#x4d8;" horiz-adv-x="1673" d="M0 0v0v0v0v0v0v0v0v0v0v0v0v0v0v0v0zM0 0v0v0v0v0v0z" />
<glyph unicode="&#x4d9;" horiz-adv-x="1231" d="M0 0v0v0v0v0v0zM0 0v0v0v0v0v0v0v0v0v0v0v0v0v0v0v0z" />
<glyph unicode="&#x4da;" horiz-adv-x="1673" d="M0 0v0v0v0v0v0v0v0v0v0v0v0v0v0v0v0zM0 0v0v0v0v0v0zM0 0v0v0v0v0v0v0v0v0zM0 0v0v0v0v0v0v0v0v0z" />
<glyph unicode="&#x4db;" horiz-adv-x="1231" d="M0 0v0v0v0v0v0zM0 0v0v0v0v0v0v0v0v0v0v0v0v0v0v0v0zM0 0v0v0v0v0v0v0v0v0zM0 0v0v0v0v0v0v0v0v0z" />
<glyph unicode="&#x4dc;" horiz-adv-x="1931" d="M0 0v0v0v0v0v0v0v0v0v0v0v0v0v0v0v0v0v0v0zM0 0v0v0v0v0v0v0v0v0zM0 0v0v0v0v0v0v0v0v0z" />
<glyph unicode="&#x4dd;" horiz-adv-x="1788" d="M0 0v0v0v0v0v0v0v0v0v0v0v0v0v0v0v0v0v0v0zM0 0v0v0v0v0v0v0v0v0zM0 0v0v0v0v0v0v0v0v0z" />
<glyph unicode="&#x4de;" horiz-adv-x="1327" d="M0 0v0v0v0v0v0v0v0v0v0v0v0v0v0v0v0v0v0v0v0v0v0v0v0v0v0v0v0zM0 0v0v0v0v0v0v0v0v0zM0 0v0v0v0v0v0v0v0v0z" />
<glyph unicode="&#x4df;" horiz-adv-x="1137" d="M0 0v0v0v0v0v0v0v0v0v0v0v0v0v0v0v0v0v0v0v0v0v0v0v0v0v0v0v0v0v0zM0 0v0v0v0v0v0v0v0v0zM0 0v0v0v0v0v0v0v0v0z" />
<glyph unicode="&#x4e0;" horiz-adv-x="1210" d="M0 0v0v0v0v0v0v0v0v0v0v0v0v0v0v0v0v0v0v0v0v0z" />
<glyph unicode="&#x4e1;" horiz-adv-x="1190" d="M0 0v0v0v0v0v0v0v0v0v0v0v0v0v0v0v0v0v0v0v0v0v0z" />
<glyph unicode="&#x4e2;" horiz-adv-x="1686" d="M0 0v0v0v0v0v0v0v0v0v0v0v0v0v0v0v0zM0 0v0v0v0v0z" />
<glyph unicode="&#x4e3;" horiz-adv-x="1475" d="M0 0v0v0v0v0v0v0v0v0v0v0v0v0zM0 0v0v0v0v0z" />
<glyph unicode="&#x4e4;" horiz-adv-x="1686" d="M0 0v0v0v0v0v0v0v0v0v0v0v0v0v0v0v0zM0 0v0v0v0v0v0v0v0v0zM0 0v0v0v0v0v0v0v0v0z" />
<glyph unicode="&#x4e5;" horiz-adv-x="1475" d="M0 0v0v0v0v0v0v0v0v0v0v0v0v0zM0 0v0v0v0v0v0v0v0v0zM0 0v0v0v0v0v0v0v0v0z" />
<glyph unicode="&#x4e6;" horiz-adv-x="1630" d="M0 0v0v0v0v0v0v0v0v0zM0 0v0v0v0v0v0v0zM0 0v0v0v0v0v0v0v0v0zM0 0v0v0v0v0v0v0v0v0z" />
<glyph unicode="&#x4e7;" horiz-adv-x="1268" d="M0 0v0v0v0v0v0v0v0v0zM0 0v0v0v0v0v0v0v0v0v0v0zM0 0v0v0v0v0v0v0v0v0zM0 0v0v0v0v0v0v0v0v0z" />
<glyph unicode="&#x4e8;" horiz-adv-x="1630" d="M0 0v0v0v0v0v0v0v0v0zM0 0v0v0v0v0v0zM0 0v0v0v0v0v0z" />
<glyph unicode="&#x4e9;" horiz-adv-x="1268" d="M0 0v0v0v0v0v0v0v0v0v0v0zM0 0v0v0v0v0v0zM0 0v0v0v0v0v0z" />
<glyph unicode="&#x4ea;" horiz-adv-x="1630" d="M0 0v0v0v0v0v0v0v0v0zM0 0v0v0v0v0v0zM0 0v0v0v0v0v0zM0 0v0v0v0v0v0v0v0v0zM0 0v0v0v0v0v0v0v0v0z" />
<glyph unicode="&#x4eb;" horiz-adv-x="1268" d="M0 0v0v0v0v0v0v0v0v0v0v0zM0 0v0v0v0v0v0zM0 0v0v0v0v0v0zM0 0v0v0v0v0v0v0v0v0zM0 0v0v0v0v0v0v0v0v0z" />
<glyph unicode="&#x4ec;" horiz-adv-x="1358" d="M0 0v0v0v0v0v0v0v0v0v0v0v0v0v0v0v0v0v0v0zM0 0v0v0v0v0v0v0v0v0zM0 0v0v0v0v0v0v0v0v0z" />
<glyph unicode="&#x4ed;" horiz-adv-x="1049" d="M0 0v0v0v0v0v0v0v0v0v0v0v0v0v0v0v0v0v0v0zM0 0v0v0v0v0v0v0v0v0zM0 0v0v0v0v0v0v0v0v0z" />
<glyph unicode="&#x4ee;" horiz-adv-x="1337" d="M0 0v0v0v0v0v0v0v0v0v0v0v0v0v0v0v0v0zM0 0v0v0v0v0z" />
<glyph unicode="&#x4ef;" horiz-adv-x="1165" d="M0 0v0v0v0v0v0v0v0v0v0v0v0v0v0v0v0v0v0zM0 0v0v0v0v0z" />
<glyph unicode="&#x4f0;" horiz-adv-x="1337" d="M0 0v0v0v0v0v0v0v0v0v0v0v0v0v0v0v0v0zM0 0v0v0v0v0v0v0v0v0zM0 0v0v0v0v0v0v0v0v0z" />
<glyph unicode="&#x4f1;" horiz-adv-x="1165" d="M0 0v0v0v0v0v0v0v0v0v0v0v0v0v0v0v0v0v0zM0 0v0v0v0v0v0v0v0v0zM0 0v0v0v0v0v0v0v0v0z" />
<glyph unicode="&#x4f2;" horiz-adv-x="1337" d="M0 0v0v0v0v0v0v0v0v0v0v0v0v0v0v0v0v0zM0 0v0v0v0v0v0v0v0v0zM0 0v0v0v0v0v0v0v0z" />
<glyph unicode="&#x4f3;" horiz-adv-x="1165" d="M0 0v0v0v0v0v0v0v0v0v0v0v0v0v0v0v0v0v0zM0 0v0v0v0v0v0v0v0v0zM0 0v0v0v0v0v0v0v0z" />
<glyph unicode="&#x4f4;" horiz-adv-x="1491" d="M0 0v0v0v0v0v0v0v0v0v0v0v0v0v0v0v0v0zM0 0v0v0v0v0v0v0v0v0zM0 0v0v0v0v0v0v0v0v0z" />
<glyph unicode="&#x4f5;" horiz-adv-x="1343" d="M0 0v0v0v0v0v0v0v0v0v0v0v0v0v0v0v0zM0 0v0v0v0v0v0v0v0v0zM0 0v0v0v0v0v0v0v0v0z" />
<glyph unicode="&#x4f6;" horiz-adv-x="1149" d="M0 0v0v0v0v0v0v0v0v0v0v0z" />
<glyph unicode="&#x4f7;" horiz-adv-x="979" d="M0 0v0v0v0v0v0v0v0v0v0v0z" />
<glyph unicode="&#x4f8;" horiz-adv-x="1855" d="M0 0v0v0v0v0v0v0v0v0v0zM0 0v0v0v0v0v0v0v0zM0 0v0v0v0v0zM0 0v0v0v0v0v0v0v0v0zM0 0v0v0v0v0v0v0v0v0z" />
<glyph unicode="&#x4f9;" horiz-adv-x="1741" d="M0 0v0v0v0v0v0v0v0v0v0zM0 0v0v0v0v0v0v0zM0 0v0v0v0v0zM0 0v0v0v0v0v0v0v0v0zM0 0v0v0v0v0v0v0v0v0z" />
<glyph unicode="&#x4fa;" horiz-adv-x="1145" d="M0 0v0v0v0v0v0v0v0v0v0v0v0v0v0v0zM0 0v0v0v0v0v0v0v0v0v0z" />
<glyph unicode="&#x4fb;" horiz-adv-x="1006" d="M0 0v0v0v0v0v0v0v0v0v0v0v0v0v0v0zM0 0v0v0v0v0v0v0v0v0v0z" />
<glyph unicode="&#x4fc;" horiz-adv-x="1499" d="M0 0v0v0v0v0v0v0v0v0v0v0v0v0zM0 0v0v0v0v0v0v0v0v0v0z" />
<glyph unicode="&#x4fd;" horiz-adv-x="1321" d="M0 0v0v0v0v0v0v0v0v0v0v0v0v0zM0 0v0v0v0v0v0v0v0v0v0z" />
<glyph unicode="&#x4fe;" horiz-adv-x="1366" d="M0 0v0v0v0v0v0v0v0v0v0v0v0v0v0v0v0v0v0v0z" />
<glyph unicode="&#x4ff;" horiz-adv-x="1184" d="M0 0v0v0v0v0v0v0v0v0v0v0v0v0v0v0v0v0v0v0z" />
<glyph unicode="&#x500;" horiz-adv-x="1307" d="M0 0v0v0v0v0v0v0v0v0zM0 0v0v0v0v0v0v0v0z" />
<glyph unicode="&#x501;" horiz-adv-x="1296" d="M0 0v0v0v0v0v0v0v0v0v0v0v0v0v0v0zM0 0v0v0v0v0v0v0v0v0v0z" />
<glyph unicode="&#x502;" horiz-adv-x="1896" d="M0 0v0v0v0v0v0v0v0v0v0v0v0v0v0v0v0v0v0v0v0v0v0zM0 0v0v0v0v0v0v0v0v0z" />
<glyph unicode="&#x503;" horiz-adv-x="1890" d="M0 0v0v0v0v0v0v0v0v0v0v0v0v0v0v0v0v0v0v0v0v0v0v0v0v0zM0 0v0v0v0v0v0v0v0v0z" />
<glyph unicode="&#x504;" horiz-adv-x="1870" d="M0 0v0v0v0v0v0v0v0v0v0v0v0v0v0v0v0v0v0v0v0v0v0v0v0v0v0v0v0v0v0z" />
<glyph unicode="&#x505;" horiz-adv-x="1782" d="M0 0v0v0v0v0v0v0v0v0v0v0v0v0v0v0v0v0v0v0v0v0v0v0v0v0v0v0v0v0v0z" />
<glyph unicode="&#x506;" horiz-adv-x="1436" d="M0 0v0v0v0v0v0v0v0v0v0v0v0v0v0v0v0v0v0v0v0v0v0v0v0v0z" />
<glyph unicode="&#x507;" horiz-adv-x="1354" d="M0 0v0v0v0v0v0v0v0v0v0v0v0v0v0v0v0v0v0v0v0v0v0v0v0v0v0v0v0z" />
<glyph unicode="&#x508;" horiz-adv-x="2116" d="M0 0v0v0v0v0v0v0v0v0v0v0v0v0v0v0v0v0v0v0v0v0v0v0v0v0v0v0z" />
<glyph unicode="&#x509;" horiz-adv-x="1915" d="M0 0v0v0v0v0v0v0v0v0v0v0v0v0v0v0v0v0v0v0v0v0v0v0v0v0z" />
<glyph unicode="&#x50a;" horiz-adv-x="2136" d="M0 0v0v0v0v0v0v0v0v0v0v0v0v0v0v0v0v0v0v0v0v0v0v0z" />
<glyph unicode="&#x50b;" horiz-adv-x="1950" d="M0 0v0v0v0v0v0v0v0v0v0v0v0v0v0v0v0v0v0v0v0v0v0v0z" />
<glyph unicode="&#x50c;" horiz-adv-x="1638" d="M0 0v0v0v0v0v0v0v0v0v0v0v0v0v0v0v0v0v0v0v0v0v0v0z" />
<glyph unicode="&#x50d;" horiz-adv-x="1358" d="M0 0v0v0v0v0v0v0v0v0v0v0v0v0v0v0v0v0v0v0z" />
<glyph unicode="&#x50e;" horiz-adv-x="1552" d="M0 0v0v0v0v0v0v0v0v0v0v0v0v0v0v0v0v0v0v0z" />
<glyph unicode="&#x50f;" horiz-adv-x="1503" d="M0 0v0v0v0v0v0v0v0v0v0v0v0v0v0v0v0v0v0v0z" />
<glyph unicode="&#x510;" horiz-adv-x="1327" d="M0 0v0v0v0v0v0v0v0v0v0v0v0v0v0v0v0v0v0v0v0v0v0v0v0v0v0v0v0v0v0z" />
<glyph unicode="&#x511;" horiz-adv-x="1139" d="M0 0v0v0v0v0v0v0v0v0v0v0v0v0v0v0v0v0v0v0v0v0v0v0v0v0v0z" />
<glyph unicode="&#x512;" horiz-adv-x="1675" d="M0 0v0v0v0v0v0v0v0v0v0v0v0v0v0v0v0v0zM0 0v0v0v0v0v0v0v0v0v0z" />
<glyph unicode="&#x513;" horiz-adv-x="1483" d="M0 0v0v0v0v0v0v0v0v0v0v0v0v0v0v0zM0 0v0v0v0v0v0v0v0v0v0z" />
<glyph unicode="&#x1e00;" horiz-adv-x="1413" d="M0 0v0v0v0v0v0v0v0v0zM0 0v0v0v0v0zM0 0v0v0v0v0v0v0v0v0zM0 0v0v0v0v0v0v0v0v0z" />
<glyph unicode="&#x1e01;" horiz-adv-x="1237" d="M0 0v0v0v0v0v0v0v0v0v0v0v0v0v0v0v0v0v0v0zM0 0v0v0v0v0v0v0v0zM0 0v0v0v0v0v0v0v0v0zM0 0v0v0v0v0v0v0v0v0z" />
<glyph unicode="&#x1e3e;" horiz-adv-x="1931" d="M0 0v0v0v0v0v0v0v0v0v0v0v0v0v0v0v0v0v0v0v0zM0 0v0v0v0v0v0v0v0z" />
<glyph unicode="&#x1e3f;" horiz-adv-x="2011" d="M0 0v0v0v0v0v0v0v0v0v0v0v0v0v0v0v0v0v0v0v0v0v0v0v0v0v0v0v0v0zM0 0v0v0v0v0v0v0v0z" />
<glyph unicode="&#x1e80;" horiz-adv-x="1980" d="M0 0v0v0v0v0v0v0v0v0v0v0v0v0v0v0v0v0v0v0v0v0v0v0v0v0zM0 0v0v0v0v0v0v0v0z" />
<glyph unicode="&#x1e81;" horiz-adv-x="1753" d="M0 0v0v0v0v0v0v0v0v0v0v0v0v0v0v0v0v0v0v0v0v0v0v0v0v0v0v0zM0 0v0v0v0v0v0v0v0z" />
<glyph unicode="&#x1e82;" horiz-adv-x="1980" d="M0 0v0v0v0v0v0v0v0v0v0v0v0v0v0v0v0v0v0v0v0v0v0v0v0v0zM0 0v0v0v0v0v0v0v0z" />
<glyph unicode="&#x1e83;" horiz-adv-x="1753" d="M0 0v0v0v0v0v0v0v0v0v0v0v0v0v0v0v0v0v0v0v0v0v0v0v0v0v0v0zM0 0v0v0v0v0v0v0v0z" />
<glyph unicode="&#x1e84;" horiz-adv-x="1980" d="M0 0v0v0v0v0v0v0v0v0v0v0v0v0v0v0v0v0v0v0v0v0v0v0v0v0zM0 0v0v0v0v0v0v0v0v0zM0 0v0v0v0v0v0v0v0v0z" />
<glyph unicode="&#x1e85;" horiz-adv-x="1753" d="M0 0v0v0v0v0v0v0v0v0v0v0v0v0v0v0v0v0v0v0v0v0v0v0v0v0v0v0zM0 0v0v0v0v0v0v0v0v0zM0 0v0v0v0v0v0v0v0v0z" />
<glyph unicode="&#x1ea0;" horiz-adv-x="1413" d="M0 0v0v0v0v0v0v0v0v0zM0 0v0v0v0v0zM0 0v0v0v0v0v0z" />
<glyph unicode="&#x1ea1;" horiz-adv-x="1237" d="M0 0v0v0v0v0v0v0v0v0v0v0v0v0v0v0v0v0v0v0zM0 0v0v0v0v0v0v0v0zM0 0v0v0v0v0v0z" />
<glyph unicode="&#x1ea2;" horiz-adv-x="1413" d="M0 0v0v0v0v0v0v0v0v0zM0 0v0v0v0v0zM0 0v0v0v0v0v0v0v0v0v0v0v0v0v0v0z" />
<glyph unicode="&#x1ea3;" horiz-adv-x="1237" d="M0 0v0v0v0v0v0v0v0v0v0v0v0v0v0v0v0v0v0v0zM0 0v0v0v0v0v0v0v0zM0 0v0v0v0v0v0v0v0v0v0v0v0v0v0v0z" />
<glyph unicode="&#x1ea4;" horiz-adv-x="1413" d="M0 0v0v0v0v0v0v0v0v0zM0 0v0v0v0v0zM0 0v0v0v0v0v0v0v0v0v0v0zM0 0v0v0v0v0v0v0z" />
<glyph unicode="&#x1ea5;" horiz-adv-x="1237" d="M0 0v0v0v0v0v0v0v0v0v0v0v0v0v0v0v0v0v0v0zM0 0v0v0v0v0v0v0v0zM0 0v0v0v0v0v0v0v0v0v0v0zM0 0v0v0v0v0v0v0z" />
<glyph unicode="&#x1ea6;" horiz-adv-x="1413" d="M0 0v0v0v0v0v0v0v0v0zM0 0v0v0v0v0zM0 0v0v0v0v0v0v0v0v0v0v0zM0 0v0v0v0v0v0v0z" />
<glyph unicode="&#x1ea7;" horiz-adv-x="1237" d="M0 0v0v0v0v0v0v0v0v0v0v0v0v0v0v0v0v0v0v0zM0 0v0v0v0v0v0v0v0zM0 0v0v0v0v0v0v0v0v0v0v0zM0 0v0v0v0v0v0v0z" />
<glyph unicode="&#x1ea8;" horiz-adv-x="1413" d="M0 0v0v0v0v0v0v0v0v0zM0 0v0v0v0v0zM0 0v0v0v0v0v0v0v0v0v0v0v0v0v0zM0 0v0v0v0v0v0v0v0v0v0v0z" />
<glyph unicode="&#x1ea9;" horiz-adv-x="1237" d="M0 0v0v0v0v0v0v0v0v0v0v0v0v0v0v0v0v0v0v0zM0 0v0v0v0v0v0v0v0zM0 0v0v0v0v0v0v0v0v0v0v0v0v0v0zM0 0v0v0v0v0v0v0v0v0v0v0z" />
<glyph unicode="&#x1eaa;" horiz-adv-x="1413" d="M0 0v0v0v0v0v0v0v0v0zM0 0v0v0v0v0zM0 0v0v0v0v0v0v0v0v0v0v0v0v0v0v0v0v0v0v0zM0 0v0v0v0v0v0v0v0v0v0v0z" />
<glyph unicode="&#x1eab;" horiz-adv-x="1237" d="M0 0v0v0v0v0v0v0v0v0v0v0v0v0v0v0v0v0v0v0zM0 0v0v0v0v0v0v0v0zM0 0v0v0v0v0v0v0v0v0v0v0v0v0v0v0v0v0v0v0zM0 0v0v0v0v0v0v0v0v0v0v0z" />
<glyph unicode="&#x1eac;" horiz-adv-x="1413" d="M0 0v0v0v0v0v0v0v0v0zM0 0v0v0v0v0zM0 0v0v0v0v0v0v0v0v0v0v0zM0 0v0v0v0v0v0z" />
<glyph unicode="&#x1ead;" horiz-adv-x="1237" d="M0 0v0v0v0v0v0v0v0v0v0v0v0v0v0v0v0v0v0v0zM0 0v0v0v0v0v0v0v0zM0 0v0v0v0v0v0v0v0v0v0v0zM0 0v0v0v0v0v0z" />
<glyph unicode="&#x1eae;" horiz-adv-x="1413" d="M0 0v0v0v0v0v0v0v0v0zM0 0v0v0v0v0zM0 0v0v0v0v0v0v0zM0 0v0v0v0v0v0v0v0v0v0v0z" />
<glyph unicode="&#x1eaf;" horiz-adv-x="1237" d="M0 0v0v0v0v0v0v0v0v0v0v0v0v0v0v0v0v0v0v0zM0 0v0v0v0v0v0v0v0zM0 0v0v0v0v0v0v0zM0 0v0v0v0v0v0v0v0v0v0v0z" />
<glyph unicode="&#x1eb0;" horiz-adv-x="1413" d="M0 0v0v0v0v0v0v0v0v0zM0 0v0v0v0v0zM0 0v0v0v0v0v0v0zM0 0v0v0v0v0v0v0v0v0v0v0z" />
<glyph unicode="&#x1eb1;" horiz-adv-x="1237" d="M0 0v0v0v0v0v0v0v0v0v0v0v0v0v0v0v0v0v0v0zM0 0v0v0v0v0v0v0v0zM0 0v0v0v0v0v0v0zM0 0v0v0v0v0v0v0v0v0v0v0z" />
<glyph unicode="&#x1eb2;" horiz-adv-x="1413" d="M0 0v0v0v0v0v0v0v0v0zM0 0v0v0v0v0zM0 0v0v0v0v0v0v0v0v0v0v0v0v0v0zM0 0v0v0v0v0v0v0v0v0v0v0z" />
<glyph unicode="&#x1eb3;" horiz-adv-x="1237" d="M0 0v0v0v0v0v0v0v0v0v0v0v0v0v0v0v0v0v0v0zM0 0v0v0v0v0v0v0v0zM0 0v0v0v0v0v0v0v0v0v0v0v0v0v0zM0 0v0v0v0v0v0v0v0v0v0v0z" />
<glyph unicode="&#x1eb4;" horiz-adv-x="1413" d="M0 0v0v0v0v0v0v0v0v0zM0 0v0v0v0v0zM0 0v0v0v0v0v0v0v0v0v0zM0 0v0v0v0v0v0v0v0v0v0v0v0v0v0v0v0v0v0v0z" />
<glyph unicode="&#x1eb5;" horiz-adv-x="1237" d="M0 0v0v0v0v0v0v0v0v0v0v0v0v0v0v0v0v0v0v0zM0 0v0v0v0v0v0v0v0zM0 0v0v0v0v0v0v0v0v0v0zM0 0v0v0v0v0v0v0v0v0v0v0v0v0v0v0v0v0v0v0z" />
<glyph unicode="&#x1eb6;" horiz-adv-x="1413" d="M0 0v0v0v0v0v0v0v0v0zM0 0v0v0v0v0zM0 0v0v0v0v0v0v0v0v0v0v0zM0 0v0v0v0v0v0z" />
<glyph unicode="&#x1eb7;" horiz-adv-x="1237" d="M0 0v0v0v0v0v0v0v0v0v0v0v0v0v0v0v0v0v0v0zM0 0v0v0v0v0v0v0v0zM0 0v0v0v0v0v0zM0 0v0v0v0v0v0v0v0v0v0v0z" />
<glyph unicode="&#x1eb8;" horiz-adv-x="1147" d="M0 0v0v0v0v0v0v0v0v0v0v0v0v0zM0 0v0v0v0v0v0z" />
<glyph unicode="&#x1eb9;" horiz-adv-x="1210" d="M0 0v0v0v0v0v0zM0 0v0v0v0v0v0v0v0v0v0v0v0v0v0v0v0zM0 0v0v0v0v0v0z" />
<glyph unicode="&#x1eba;" horiz-adv-x="1147" d="M0 0v0v0v0v0v0v0v0v0v0v0v0v0zM0 0v0v0v0v0v0v0v0v0v0v0v0v0v0v0z" />
<glyph unicode="&#x1ebb;" horiz-adv-x="1210" d="M0 0v0v0v0v0v0zM0 0v0v0v0v0v0v0v0v0v0v0v0v0v0v0v0zM0 0v0v0v0v0v0v0v0v0v0v0v0v0v0v0z" />
<glyph unicode="&#x1ebc;" horiz-adv-x="1147" d="M0 0v0v0v0v0v0v0v0v0v0v0v0v0zM0 0v0v0v0v0v0v0v0v0v0v0v0v0v0v0v0v0v0v0z" />
<glyph unicode="&#x1ebd;" horiz-adv-x="1210" d="M0 0v0v0v0v0v0zM0 0v0v0v0v0v0v0v0v0v0v0v0v0v0v0v0zM0 0v0v0v0v0v0v0v0v0v0v0v0v0v0v0v0v0v0v0z" />
<glyph unicode="&#x1ebe;" horiz-adv-x="1147" d="M0 0v0v0v0v0v0v0v0v0v0v0v0v0zM0 0v0v0v0v0v0v0v0v0v0v0zM0 0v0v0v0v0v0v0z" />
<glyph unicode="&#x1ebf;" horiz-adv-x="1210" d="M0 0v0v0v0v0v0zM0 0v0v0v0v0v0v0v0v0v0v0v0v0v0v0v0zM0 0v0v0v0v0v0v0v0v0v0v0zM0 0v0v0v0v0v0v0z" />
<glyph unicode="&#x1ec0;" horiz-adv-x="1147" d="M0 0v0v0v0v0v0v0v0v0v0v0v0v0zM0 0v0v0v0v0v0v0v0v0v0v0zM0 0v0v0v0v0v0v0z" />
<glyph unicode="&#x1ec1;" horiz-adv-x="1210" d="M0 0v0v0v0v0v0zM0 0v0v0v0v0v0v0v0v0v0v0v0v0v0v0v0zM0 0v0v0v0v0v0v0v0v0v0v0zM0 0v0v0v0v0v0v0z" />
<glyph unicode="&#x1ec2;" horiz-adv-x="1147" d="M0 0v0v0v0v0v0v0v0v0v0v0v0v0zM0 0v0v0v0v0v0v0v0v0v0v0v0v0v0zM0 0v0v0v0v0v0v0v0v0v0v0z" />
<glyph unicode="&#x1ec3;" horiz-adv-x="1210" d="M0 0v0v0v0v0v0zM0 0v0v0v0v0v0v0v0v0v0v0v0v0v0v0v0zM0 0v0v0v0v0v0v0v0v0v0v0v0v0v0zM0 0v0v0v0v0v0v0v0v0v0v0z" />
<glyph unicode="&#x1ec4;" horiz-adv-x="1147" d="M0 0v0v0v0v0v0v0v0v0v0v0v0v0zM0 0v0v0v0v0v0v0v0v0v0v0v0v0v0v0v0v0v0v0zM0 0v0v0v0v0v0v0v0v0v0v0z" />
<glyph unicode="&#x1ec5;" horiz-adv-x="1210" d="M0 0v0v0v0v0v0zM0 0v0v0v0v0v0v0v0v0v0v0v0v0v0v0v0zM0 0v0v0v0v0v0v0v0v0v0v0v0v0v0v0v0v0v0v0zM0 0v0v0v0v0v0v0v0v0v0v0z" />
<glyph unicode="&#x1ec6;" horiz-adv-x="1147" d="M0 0v0v0v0v0v0v0v0v0v0v0v0v0zM0 0v0v0v0v0v0v0v0v0v0v0zM0 0v0v0v0v0v0z" />
<glyph unicode="&#x1ec7;" horiz-adv-x="1210" d="M0 0v0v0v0v0v0zM0 0v0v0v0v0v0v0v0v0v0v0v0v0v0v0v0zM0 0v0v0v0v0v0v0v0v0v0v0zM0 0v0v0v0v0v0z" />
<glyph unicode="&#x1ec8;" horiz-adv-x="678" d="M0 0v0v0v0v0zM0 0v0v0v0v0v0v0v0v0v0v0v0v0v0v0z" />
<glyph unicode="&#x1ec9;" horiz-adv-x="625" d="M0 0v0v0v0v0zM0 0v0v0v0v0v0v0v0v0v0v0v0v0v0v0z" />
<glyph unicode="&#x1eca;" horiz-adv-x="678" d="M0 0v0v0v0v0zM0 0v0v0v0v0v0z" />
<glyph unicode="&#x1ecb;" horiz-adv-x="625" d="M0 0v0v0v0v0v0zM0 0v0v0v0v0zM0 0v0v0v0v0v0z" />
<glyph unicode="&#x1ecc;" horiz-adv-x="1630" d="M0 0v0v0v0v0v0v0v0v0zM0 0v0v0v0v0v0v0zM0 0v0v0v0v0v0z" />
<glyph unicode="&#x1ecd;" horiz-adv-x="1268" d="M0 0v0v0v0v0v0v0v0v0zM0 0v0v0v0v0v0v0v0v0v0v0zM0 0v0v0v0v0v0z" />
<glyph unicode="&#x1ece;" horiz-adv-x="1630" d="M0 0v0v0v0v0v0v0v0v0zM0 0v0v0v0v0v0v0zM0 0v0v0v0v0v0v0v0v0v0v0v0v0v0v0z" />
<glyph unicode="&#x1ecf;" horiz-adv-x="1268" d="M0 0v0v0v0v0v0v0v0v0zM0 0v0v0v0v0v0v0v0v0v0v0zM0 0v0v0v0v0v0v0v0v0v0v0v0v0v0v0z" />
<glyph unicode="&#x1ed0;" horiz-adv-x="1630" d="M0 0v0v0v0v0v0v0v0v0zM0 0v0v0v0v0v0v0zM0 0v0v0v0v0v0v0v0v0v0v0zM0 0v0v0v0v0v0v0z" />
<glyph unicode="&#x1ed1;" horiz-adv-x="1268" d="M0 0v0v0v0v0v0v0v0v0zM0 0v0v0v0v0v0v0v0v0v0v0zM0 0v0v0v0v0v0v0v0v0v0v0zM0 0v0v0v0v0v0v0z" />
<glyph unicode="&#x1ed2;" horiz-adv-x="1630" d="M0 0v0v0v0v0v0v0v0v0zM0 0v0v0v0v0v0v0zM0 0v0v0v0v0v0v0v0v0v0v0zM0 0v0v0v0v0v0v0z" />
<glyph unicode="&#x1ed3;" horiz-adv-x="1268" d="M0 0v0v0v0v0v0v0v0v0zM0 0v0v0v0v0v0v0v0v0v0v0zM0 0v0v0v0v0v0v0v0v0v0v0zM0 0v0v0v0v0v0v0z" />
<glyph unicode="&#x1ed4;" horiz-adv-x="1630" d="M0 0v0v0v0v0v0v0v0v0zM0 0v0v0v0v0v0v0zM0 0v0v0v0v0v0v0v0v0v0v0v0v0v0zM0 0v0v0v0v0v0v0v0v0v0v0z" />
<glyph unicode="&#x1ed5;" horiz-adv-x="1268" d="M0 0v0v0v0v0v0v0v0v0zM0 0v0v0v0v0v0v0v0v0v0v0zM0 0v0v0v0v0v0v0v0v0v0v0v0v0v0zM0 0v0v0v0v0v0v0v0v0v0v0z" />
<glyph unicode="&#x1ed6;" horiz-adv-x="1630" d="M0 0v0v0v0v0v0v0v0v0zM0 0v0v0v0v0v0v0zM0 0v0v0v0v0v0v0v0v0v0v0v0v0v0v0v0v0v0v0zM0 0v0v0v0v0v0v0v0v0v0v0z" />
<glyph unicode="&#x1ed7;" horiz-adv-x="1268" d="M0 0v0v0v0v0v0v0v0v0zM0 0v0v0v0v0v0v0v0v0v0v0zM0 0v0v0v0v0v0v0v0v0v0v0v0v0v0v0v0v0v0v0zM0 0v0v0v0v0v0v0v0v0v0v0z" />
<glyph unicode="&#x1ed8;" horiz-adv-x="1630" d="M0 0v0v0v0v0v0v0v0v0zM0 0v0v0v0v0v0v0zM0 0v0v0v0v0v0zM0 0v0v0v0v0v0v0v0v0v0v0z" />
<glyph unicode="&#x1ed9;" horiz-adv-x="1268" d="M0 0v0v0v0v0v0v0v0v0zM0 0v0v0v0v0v0v0v0v0v0v0zM0 0v0v0v0v0v0zM0 0v0v0v0v0v0v0v0v0v0v0z" />
<glyph unicode="&#x1eda;" horiz-adv-x="1690" d="M0 0v0v0v0v0v0v0v0v0v0v0v0v0v0zM0 0v0v0v0v0v0v0zM0 0zM0 0v0v0v0v0v0v0v0z" />
<glyph unicode="&#x1edb;" horiz-adv-x="1391" d="M0 0v0v0v0v0v0v0v0v0v0v0v0v0v0v0v0v0zM0 0v0v0v0v0v0v0v0v0zM0 0zM0 0v0v0v0v0v0v0v0z" />
<glyph unicode="&#x1edc;" horiz-adv-x="1690" d="M0 0v0v0v0v0v0v0v0v0v0v0v0v0v0zM0 0v0v0v0v0v0v0zM0 0zM0 0v0v0v0v0v0v0v0z" />
<glyph unicode="&#x1edd;" horiz-adv-x="1391" d="M0 0v0v0v0v0v0v0v0v0v0v0v0v0v0v0v0v0zM0 0v0v0v0v0v0v0v0v0zM0 0zM0 0v0v0v0v0v0v0v0z" />
<glyph unicode="&#x1ede;" horiz-adv-x="1690" d="M0 0v0v0v0v0v0v0v0v0v0v0v0v0v0zM0 0v0v0v0v0v0v0zM0 0zM0 0v0v0v0v0v0v0v0v0v0v0v0v0v0v0z" />
<glyph unicode="&#x1edf;" horiz-adv-x="1391" d="M0 0v0v0v0v0v0v0v0v0v0v0v0v0v0v0v0v0zM0 0v0v0v0v0v0v0v0v0zM0 0zM0 0v0v0v0v0v0v0v0v0v0v0v0v0v0v0z" />
<glyph unicode="&#x1ee0;" horiz-adv-x="1690" d="M0 0v0v0v0v0v0v0v0v0v0v0v0v0v0zM0 0v0v0v0v0v0v0zM0 0zM0 0v0v0v0v0v0v0v0v0v0v0v0v0v0v0v0v0v0v0z" />
<glyph unicode="&#x1ee1;" horiz-adv-x="1391" d="M0 0v0v0v0v0v0v0v0v0v0v0v0v0v0v0v0v0zM0 0v0v0v0v0v0v0v0v0zM0 0zM0 0v0v0v0v0v0v0v0v0v0v0v0v0v0v0v0v0v0v0z" />
<glyph unicode="&#x1ee2;" horiz-adv-x="1690" d="M0 0v0v0v0v0v0v0v0v0v0v0v0v0v0zM0 0v0v0v0v0v0v0zM0 0zM0 0v0v0v0v0v0z" />
<glyph unicode="&#x1ee3;" horiz-adv-x="1391" d="M0 0v0v0v0v0v0v0v0v0v0v0v0v0v0v0v0v0zM0 0v0v0v0v0v0v0v0v0zM0 0zM0 0v0v0v0v0v0z" />
<glyph unicode="&#x1ee4;" horiz-adv-x="1548" d="M0 0v0v0v0v0v0v0v0v0v0v0v0v0v0v0v0zM0 0v0v0v0v0v0z" />
<glyph unicode="&#x1ee5;" horiz-adv-x="1346" d="M0 0v0v0v0v0v0v0v0v0v0v0v0v0v0v0v0v0v0zM0 0v0v0v0v0v0z" />
<glyph unicode="&#x1ee6;" horiz-adv-x="1548" d="M0 0v0v0v0v0v0v0v0v0v0v0v0v0v0v0v0zM0 0v0v0v0v0v0v0v0v0v0v0v0v0v0v0z" />
<glyph unicode="&#x1ee7;" horiz-adv-x="1346" d="M0 0v0v0v0v0v0v0v0v0v0v0v0v0v0v0v0v0v0zM0 0v0v0v0v0v0v0v0v0v0v0v0v0v0v0z" />
<glyph unicode="&#x1ee8;" horiz-adv-x="1812" d="M0 0v0v0v0v0v0v0v0v0v0v0v0v0v0v0v0v0v0v0v0v0v0v0v0zM0 0zM0 0v0v0v0v0v0v0v0z" />
<glyph unicode="&#x1ee9;" horiz-adv-x="1556" d="M0 0v0v0v0v0v0v0v0v0v0v0v0v0v0v0v0v0v0v0v0v0v0v0v0v0v0zM0 0zM0 0v0v0v0v0v0v0v0z" />
<glyph unicode="&#x1eea;" horiz-adv-x="1812" d="M0 0v0v0v0v0v0v0v0v0v0v0v0v0v0v0v0v0v0v0v0v0v0v0v0zM0 0zM0 0v0v0v0v0v0v0v0z" />
<glyph unicode="&#x1eeb;" horiz-adv-x="1556" d="M0 0v0v0v0v0v0v0v0v0v0v0v0v0v0v0v0v0v0v0v0v0v0v0v0v0v0zM0 0zM0 0v0v0v0v0v0v0v0z" />
<glyph unicode="&#x1eec;" horiz-adv-x="1812" d="M0 0v0v0v0v0v0v0v0v0v0v0v0v0v0v0v0v0v0v0v0v0v0v0v0zM0 0zM0 0v0v0v0v0v0v0v0v0v0v0v0v0v0v0z" />
<glyph unicode="&#x1eed;" horiz-adv-x="1556" d="M0 0v0v0v0v0v0v0v0v0v0v0v0v0v0v0v0v0v0v0v0v0v0v0v0v0v0zM0 0zM0 0v0v0v0v0v0v0v0v0v0v0v0v0v0v0z" />
<glyph unicode="&#x1eee;" horiz-adv-x="1812" d="M0 0v0v0v0v0v0v0v0v0v0v0v0v0v0v0v0v0v0v0v0v0v0v0v0zM0 0zM0 0v0v0v0v0v0v0v0v0v0v0v0v0v0v0v0v0v0v0z" />
<glyph unicode="&#x1eef;" horiz-adv-x="1556" d="M0 0v0v0v0v0v0v0v0v0v0v0v0v0v0v0v0v0v0v0v0v0v0v0v0v0v0zM0 0zM0 0v0v0v0v0v0v0v0v0v0v0v0v0v0v0v0v0v0v0z" />
<glyph unicode="&#x1ef0;" horiz-adv-x="1812" d="M0 0v0v0v0v0v0v0v0v0v0v0v0v0v0v0v0v0v0v0v0v0v0v0v0zM0 0zM0 0v0v0v0v0v0z" />
<glyph unicode="&#x1ef1;" horiz-adv-x="1556" d="M0 0v0v0v0v0v0v0v0v0v0v0v0v0v0v0v0v0v0v0v0v0v0v0v0v0v0zM0 0zM0 0v0v0v0v0v0z" />
<glyph unicode="&#x1ef2;" horiz-adv-x="1278" d="M0 0v0v0v0v0v0v0v0v0v0zM0 0v0v0v0v0v0v0v0z" />
<glyph unicode="&#x1ef3;" horiz-adv-x="1165" d="M0 0v0v0v0v0v0v0v0v0v0v0v0v0v0v0v0v0v0zM0 0v0v0v0v0v0v0v0z" />
<glyph unicode="&#x1ef4;" horiz-adv-x="1278" d="M0 0v0v0v0v0v0v0v0v0v0zM0 0v0v0v0v0v0z" />
<glyph unicode="&#x1ef5;" horiz-adv-x="1165" d="M0 0v0v0v0v0v0v0v0v0v0v0v0v0v0v0v0v0v0zM0 0v0v0v0v0v0z" />
<glyph unicode="&#x1ef6;" horiz-adv-x="1278" d="M0 0v0v0v0v0v0v0v0v0v0zM0 0v0v0v0v0v0v0v0v0v0v0v0v0v0v0z" />
<glyph unicode="&#x1ef7;" horiz-adv-x="1165" d="M0 0v0v0v0v0v0v0v0v0v0v0v0v0v0v0v0v0v0zM0 0v0v0v0v0v0v0v0v0v0v0v0v0v0v0z" />
<glyph unicode="&#x1ef8;" horiz-adv-x="1278" d="M0 0v0v0v0v0v0v0v0v0v0zM0 0v0v0v0v0v0v0v0v0v0v0v0v0v0v0v0v0v0v0z" />
<glyph unicode="&#x1ef9;" horiz-adv-x="1165" d="M0 0v0v0v0v0v0v0v0v0v0v0v0v0v0v0v0v0v0zM0 0v0v0v0v0v0v0v0v0v0v0v0v0v0v0v0v0v0v0z" />
<glyph unicode="&#x1f4d;" horiz-adv-x="1712" d="M0 0v0v0v0v0v0v0v0v0v0v0v0v0v0zM0 0v0v0v0v0v0v0v0zM0 0v0v0v0v0v0v0v0v0zM0 0v0v0v0v0v0v0z" />
<glyph unicode="&#x1fde;" horiz-adv-x="512" d="M0 0v0v0v0v0v0v0v0v0v0v0v0v0v0zM0 0v0v0v0v0v0v0v0z" />
<glyph unicode="&#x2000;" horiz-adv-x="1024" />
<glyph unicode="&#x2001;" horiz-adv-x="2048" />
<glyph unicode="&#x2002;" horiz-adv-x="1024" />
<glyph unicode="&#x2003;" horiz-adv-x="2048" />
<glyph unicode="&#x2004;" horiz-adv-x="682" />
<glyph unicode="&#x2005;" horiz-adv-x="512" />
<glyph unicode="&#x2006;" horiz-adv-x="342" />
<glyph unicode="&#x2007;" horiz-adv-x="1145" />
<glyph unicode="&#x2008;" horiz-adv-x="584" />
<glyph unicode="&#x2009;" horiz-adv-x="410" />
<glyph unicode="&#x200a;" horiz-adv-x="205" />
<glyph unicode="&#x200b;" horiz-adv-x="0" />
<glyph unicode="&#x2013;" horiz-adv-x="1024" d="M0 0v0v0v0v0z" />
<glyph unicode="&#x2014;" horiz-adv-x="2048" d="M0 0v0v0v0v0z" />
<glyph unicode="&#x2015;" horiz-adv-x="2048" d="M0 0v0v0v0v0z" />
<glyph unicode="&#x2017;" horiz-adv-x="842" d="M0 0v0v0v0v0zM0 0v0v0v0v0z" />
<glyph unicode="&#x2018;" horiz-adv-x="444" d="M0 0v0v0v0v0v0v0z" />
<glyph unicode="&#x2019;" horiz-adv-x="444" d="M0 0v0v0v0v0v0z" />
<glyph unicode="&#x201a;" horiz-adv-x="596" d="M0 0v0v0v0v0v0z" />
<glyph unicode="&#x201b;" horiz-adv-x="442" d="M0 0v0v0v0v0v0v0z" />
<glyph unicode="&#x201c;" horiz-adv-x="911" d="M0 0v0v0v0v0v0v0zM0 0v0v0v0v0v0v0z" />
<glyph unicode="&#x201d;" horiz-adv-x="911" d="M0 0v0v0v0v0v0zM0 0v0v0v0v0v0z" />
<glyph unicode="&#x201e;" horiz-adv-x="1061" d="M0 0v0v0v0v0v0zM0 0v0v0v0v0v0z" />
<glyph unicode="&#x2020;" horiz-adv-x="1057" d="M0 0v0v0v0v0v0v0v0v0v0v0v0v0z" />
<glyph unicode="&#x2021;" horiz-adv-x="1077" d="M0 0v0v0v0v0v0v0v0v0v0v0v0v0v0v0v0v0v0v0v0v0v0v0z" />
<glyph unicode="&#x2022;" horiz-adv-x="770" d="M0 0v0v0v0v0v0v0v0v0z" />
<glyph unicode="&#x2026;" horiz-adv-x="1751" d="M0 0v0v0v0v0v0v0v0v0zM0 0v0v0v0v0v0v0v0v0zM0 0v0v0v0v0v0v0v0v0z" />
<glyph unicode="&#x2030;" horiz-adv-x="2623" d="M0 0v0v0v0v0v0v0zM0 0v0v0v0v0v0v0v0zM0 0v0v0v0v0zM0 0v0v0v0v0v0v0zM0 0v0v0v0v0v0v0v0zM0 0v0v0v0v0v0v0zM0 0v0v0v0v0v0v0v0zM0 0z" />
<glyph unicode="&#x2032;" horiz-adv-x="545" d="M0 0v0v0v0v0z" />
<glyph unicode="&#x2033;" horiz-adv-x="967" d="M0 0v0v0v0v0zM0 0v0v0v0v0z" />
<glyph unicode="&#x2039;" horiz-adv-x="754" d="M0 0v0v0v0v0v0v0v0z" />
<glyph unicode="&#x203a;" horiz-adv-x="754" d="M0 0v0v0v0v0v0v0v0z" />
<glyph unicode="&#x203c;" horiz-adv-x="1167" d="M0 0v0v0v0v0zM0 0v0v0v0v0v0v0v0v0zM0 0v0v0v0v0zM0 0v0v0v0v0v0v0v0v0z" />
<glyph unicode="&#x2044;" horiz-adv-x="266" d="M0 0v0v0v0v0z" />
<glyph unicode="&#x2070;" horiz-adv-x="776" d="M0 0v0v0v0v0v0v0v0v0zM0 0v0v0v0v0v0v0z" />
<glyph unicode="&#x2074;" horiz-adv-x="776" d="M0 0v0v0v0v0v0v0v0v0v0v0v0zM0 0v0v0v0v0v0v0z" />
<glyph unicode="&#x2075;" horiz-adv-x="776" d="M0 0v0v0v0v0v0v0v0v0v0v0v0v0v0v0v0v0v0v0v0z" />
<glyph unicode="&#x2076;" horiz-adv-x="776" d="M0 0v0v0v0v0v0v0v0v0v0v0v0v0v0zM0 0v0v0v0v0v0v0v0z" />
<glyph unicode="&#x2077;" horiz-adv-x="776" d="M0 0v0v0v0v0v0v0v0z" />
<glyph unicode="&#x2078;" horiz-adv-x="776" d="M0 0v0v0v0v0v0v0v0v0v0v0v0v0v0v0v0v0zM0 0v0v0v0v0v0v0zM0 0v0v0v0v0v0v0v0v0z" />
<glyph unicode="&#x2079;" horiz-adv-x="776" d="M0 0v0v0v0v0v0v0v0v0v0v0v0v0v0v0v0zM0 0v0v0v0v0v0v0v0v0z" />
<glyph unicode="&#x207f;" horiz-adv-x="866" d="M0 0v0v0v0v0v0v0v0v0v0v0v0v0v0v0v0z" />
<glyph unicode="&#x20a3;" d="M0 0v0v0v0v0v0v0v0v0v0v0v0v0v0v0v0v0v0v0z" />
<glyph unicode="&#x20a4;" d="M0 0v0v0v0v0v0v0v0v0v0v0v0v0v0v0v0v0v0v0v0v0v0v0v0v0v0v0v0v0v0v0v0v0z" />
<glyph unicode="&#x20a7;" horiz-adv-x="1827" d="M0 0v0v0v0v0v0v0v0zM0 0v0v0v0v0v0v0v0v0v0zM0 0v0v0v0v0v0v0v0v0v0v0v0v0v0v0v0v0v0v0z" />
<glyph unicode="&#x20ab;" horiz-adv-x="1329" d="M0 0v0v0v0v0v0v0v0v0v0v0v0v0v0v0v0v0v0v0v0v0v0v0v0zM0 0v0v0v0v0v0v0v0v0v0zM0 0v0v0v0v0z" />
<glyph unicode="&#x20ac;" d="M0 0v0v0v0v0v0v0v0v0v0v0v0v0v0v0v0v0v0v0v0v0v0v0v0v0v0v0v0v0v0v0v0z" />
<glyph unicode="&#x2105;" horiz-adv-x="1628" d="M0 0v0v0v0v0zM0 0v0v0v0v0v0v0v0v0zM0 0v0v0v0v0v0v0v0v0zM0 0v0v0v0v0v0v0v0v0v0v0v0v0v0z" />
<glyph unicode="&#x2113;" horiz-adv-x="1065" d="M0 0v0v0v0v0v0v0v0v0v0v0v0v0v0v0v0v0v0v0v0v0zM0 0v0v0v0v0v0v0z" />
<glyph unicode="&#x2116;" horiz-adv-x="2105" d="M0 0v0v0v0v0v0v0v0v0v0v0v0v0v0v0zM0 0v0v0v0v0zM0 0v0v0v0v0v0v0v0v0zM0 0v0v0v0v0v0v0v0v0z" />
<glyph unicode="&#x2120;" horiz-adv-x="1505" d="M0 0v0v0v0v0v0v0v0v0v0v0v0v0v0v0v0v0v0v0v0v0v0v0v0v0zM0 0v0v0v0v0v0v0v0v0v0v0v0v0v0v0v0v0v0z" />
<glyph unicode="&#x2122;" horiz-adv-x="1534" d="M0 0v0v0v0v0v0v0v0v0zM0 0v0v0v0v0v0v0v0v0v0v0v0v0v0v0v0v0v0z" />
<glyph unicode="&#x2126;" horiz-adv-x="1610" d="M0 0v0v0v0v0v0v0v0v0v0v0v0v0v0v0v0v0v0v0v0v0v0v0v0v0v0z" />
<glyph unicode="&#x212e;" horiz-adv-x="1268" d="M0 0v0v0v0v0v0v0v0v0v0v0v0v0v0v0v0v0v0v0zM0 0v0v0v0v0v0v0z" />
<glyph unicode="&#x215b;" horiz-adv-x="1804" d="M0 0v0v0v0v0zM0 0v0v0v0v0v0v0v0v0v0v0v0v0v0v0v0v0zM0 0v0v0v0v0v0v0zM0 0v0v0v0v0v0v0v0v0zM0 0v0v0v0v0v0v0v0v0v0v0z" />
<glyph unicode="&#x215c;" horiz-adv-x="1804" d="M0 0v0v0v0v0zM0 0v0v0v0v0v0v0v0v0v0v0v0v0v0v0v0v0zM0 0v0v0v0v0v0v0zM0 0v0v0v0v0v0v0v0v0zM0 0v0v0v0v0v0v0v0v0v0v0v0v0v0v0v0v0v0v0v0v0v0v0v0v0v0v0z" />
<glyph unicode="&#x215d;" horiz-adv-x="1804" d="M0 0v0v0v0v0zM0 0v0v0v0v0v0v0v0v0v0v0v0v0v0v0v0v0zM0 0v0v0v0v0v0v0zM0 0v0v0v0v0v0v0v0v0zM0 0v0v0v0v0v0v0v0v0v0v0v0v0v0v0v0v0v0v0v0z" />
<glyph unicode="&#x215e;" horiz-adv-x="1804" d="M0 0v0v0v0v0zM0 0v0v0v0v0v0v0v0v0v0v0v0v0v0v0v0v0zM0 0v0v0v0v0v0v0zM0 0v0v0v0v0v0v0v0v0zM0 0v0v0v0v0v0v0v0z" />
<glyph unicode="&#x2202;" horiz-adv-x="1190" d="M0 0v0v0v0v0v0v0v0v0v0v0v0v0v0v0v0v0zM0 0v0v0v0v0v0v0v0v0z" />
<glyph unicode="&#x2206;" horiz-adv-x="1348" d="M0 0v0v0v0v0v0v0zM0 0v0v0v0v0v0v0v0z" />
<glyph unicode="&#x220f;" horiz-adv-x="1518" d="M0 0v0v0v0v0v0v0v0v0z" />
<glyph unicode="&#x2211;" horiz-adv-x="1292" d="M0 0v0v0v0v0v0v0v0v0v0v0v0v0z" />
<glyph unicode="&#x2212;" d="M0 0v0v0v0v0z" />
<glyph unicode="&#x221a;" horiz-adv-x="1124" d="M0 0v0v0v0v0v0v0v0v0v0z" />
<glyph unicode="&#x221e;" horiz-adv-x="1448" d="M0 0v0v0v0v0v0v0v0v0v0v0v0v0v0zM0 0v0v0v0v0v0v0v0zM0 0v0v0v0v0v0v0z" />
<glyph unicode="&#x222b;" horiz-adv-x="844" d="M0 0v0v0v0v0v0v0v0v0v0v0v0v0v0v0v0z" />
<glyph unicode="&#x2248;" d="M0 0v0v0v0v0v0v0v0v0v0v0v0v0v0v0zM0 0v0v0v0v0v0v0v0v0v0v0v0v0v0v0z" />
<glyph unicode="&#x2260;" d="M0 0v0v0v0v0v0v0v0v0v0v0v0v0v0v0v0v0v0v0v0v0z" />
<glyph unicode="&#x2264;" d="M0 0v0v0v0v0zM0 0v0v0v0v0v0v0v0z" />
<glyph unicode="&#x2265;" d="M0 0v0v0v0v0zM0 0v0v0v0v0v0v0v0z" />
<glyph unicode="&#x2400;" horiz-adv-x="0" />
<glyph unicode="&#x25ca;" horiz-adv-x="1194" d="M0 0v0v0v0v0v0v0zM0 0v0v0v0v0z" />
<glyph unicode="&#x25fc;" horiz-adv-x="1120" d="M0 0v0v0v0v0z" />
<glyph unicode="&#xfeff;" horiz-adv-x="0" />
<glyph unicode="&#xfffc;" horiz-adv-x="2048" d="M0 0v0v0v0v0v0v0zM0 0v0v0v0v0v0v0zM0 0v0v0v0v0v0v0zM0 0v0v0v0v0v0v0zM0 0v0v0v0v0zM0 0v0v0v0v0zM0 0v0v0v0v0zM0 0v0v0v0v0zM0 0v0v0v0v0zM0 0v0v0v0v0zM0 0v0v0v0v0zM0 0v0v0v0v0zM0 0v0v0v0v0zM0 0v0v0v0v0zM0 0v0v0v0v0zM0 0v0v0v0v0zM0 0v0v0v0v0v0v0v0v0zM0 0v0 v0v0v0zM0 0v0v0v0v0v0v0v0v0v0v0v0v0zM0 0v0v0v0v0v0v0v0zM0 0v0v0v0v0v0v0zM0 0v0v0v0v0v0v0v0v0v0z" />
<glyph unicode="&#xfffd;" horiz-adv-x="2048" d="M0 0v0v0v0v0zM0 0v0v0v0v0v0v0v0v0v0v0v0v0v0v0v0v0v0v0v0zM0 0v0v0v0v0v0v0v0v0z" />
<glyph horiz-adv-x="797" d="M0 0v0v0v0v0v0v0v0v0v0v0v0v0z" />
<glyph horiz-adv-x="797" d="M0 0v0v0v0v0v0v0v0v0v0v0v0v0zM0 0v0v0v0v0v0v0v0z" />
<glyph horiz-adv-x="797" d="M0 0v0v0v0v0v0v0v0v0v0v0v0v0zM0 0v0v0v0v0v0v0v0z" />
<glyph horiz-adv-x="797" d="M0 0v0v0v0v0v0v0v0v0v0v0v0v0zM0 0v0v0v0v0v0v0v0v0v0v0z" />
<glyph horiz-adv-x="797" d="M0 0v0v0v0v0v0v0v0v0v0v0v0v0zM0 0v0v0v0v0v0v0v0v0zM0 0v0v0v0v0v0v0v0v0z" />
<glyph horiz-adv-x="797" d="M0 0v0v0v0v0v0v0v0v0v0v0v0v0zM0 0v0v0v0v0v0v0v0v0v0v0v0v0v0v0v0v0v0v0z" />
<glyph horiz-adv-x="797" d="M0 0v0v0v0v0v0v0v0v0v0v0v0v0zM0 0v0v0v0v0z" />
<glyph horiz-adv-x="797" d="M0 0v0v0v0v0v0v0v0v0v0v0v0v0zM0 0v0v0v0v0v0v0v0v0v0v0z" />
<glyph horiz-adv-x="797" d="M0 0v0v0v0v0v0v0v0v0v0v0v0v0zM0 0v0v0v0v0v0v0v0v0v0v0v0v0z" />
<glyph horiz-adv-x="797" d="M0 0v0v0v0v0v0v0v0v0v0v0v0v0zM0 0v0v0v0v0v0z" />
<glyph horiz-adv-x="1475" d="M0 0v0v0v0v0v0v0v0v0v0v0v0v0zM0 0v0v0v0v0v0v0v0v0v0v0z" />
<glyph horiz-adv-x="1049" d="M0 0v0v0v0v0v0v0v0v0v0v0v0v0zM0 0v0v0v0v0v0v0v0z" />
<glyph horiz-adv-x="797" d="M0 0v0v0v0v0v0v0v0v0v0v0v0v0z" />
<glyph horiz-adv-x="797" d="M0 0v0v0v0v0v0v0v0v0v0v0v0v0zM0 0v0v0v0v0v0v0v0v0zM0 0v0v0v0v0v0v0v0v0z" />
<glyph horiz-adv-x="797" d="M0 0v0v0v0v0v0v0v0v0v0v0v0v0z" />
<glyph horiz-adv-x="797" d="M0 0v0v0v0v0v0v0v0v0v0v0v0v0zM0 0v0v0v0v0v0v0v0v0zM0 0v0v0v0v0v0v0v0v0z" />
<glyph horiz-adv-x="1182" d="M0 0v0v0v0v0v0v0v0v0v0v0z" />
<glyph horiz-adv-x="1024" d="M0 0v0v0v0v0v0v0v0z" />
<glyph horiz-adv-x="1024" d="M0 0v0v0v0v0v0v0v0z" />
<glyph horiz-adv-x="1024" d="M0 0v0v0v0v0v0v0v0z" />
<glyph horiz-adv-x="797" d="M0 0v0v0v0v0v0v0v0v0v0v0v0v0z" />
<glyph horiz-adv-x="797" d="M0 0v0v0v0v0v0v0v0v0v0v0v0v0z" />
<glyph horiz-adv-x="797" d="M0 0v0v0v0v0v0v0v0v0v0v0v0v0zM0 0v0v0v0v0v0v0v0v0v0v0v0v0v0v0z" />
<glyph horiz-adv-x="797" d="M0 0v0v0v0v0v0v0v0v0v0v0v0v0zM0 0v0v0v0v0v0z" />
<glyph horiz-adv-x="0" d="M0 0v0v0v0v0v0v0v0v0v0v0zM0 0v0v0v0v0v0v0z" />
<glyph horiz-adv-x="0" d="M0 0v0v0v0v0v0v0v0v0v0v0zM0 0v0v0v0v0v0v0z" />
<glyph horiz-adv-x="0" d="M0 0v0v0v0v0v0v0v0v0v0v0v0v0v0zM0 0v0v0v0v0v0v0v0v0v0v0z" />
<glyph horiz-adv-x="0" d="M0 0v0v0v0v0v0v0v0v0v0v0v0v0v0v0v0v0v0v0zM0 0v0v0v0v0v0v0v0v0v0v0z" />
<glyph horiz-adv-x="0" d="M0 0v0v0v0v0v0v0zM0 0v0v0v0v0v0v0v0v0v0v0z" />
<glyph horiz-adv-x="0" d="M0 0v0v0v0v0v0v0zM0 0v0v0v0v0v0v0v0v0v0v0z" />
<glyph horiz-adv-x="0" d="M0 0v0v0v0v0v0v0v0v0v0v0v0v0v0zM0 0v0v0v0v0v0v0v0v0v0v0z" />
<glyph horiz-adv-x="0" d="M0 0v0v0v0v0v0v0v0v0v0zM0 0v0v0v0v0v0v0v0v0v0v0v0v0v0v0v0v0v0v0z" />
<glyph horiz-adv-x="422" d="M0 0v0v0v0v0v0v0v0v0v0v0v0v0v0z" />
<glyph horiz-adv-x="598" d="M0 0v0v0v0v0v0v0v0v0v0z" />
<glyph horiz-adv-x="598" d="M0 0v0v0v0v0v0v0v0v0v0z" />
<glyph horiz-adv-x="985" d="M0 0v0v0v0v0v0v0v0v0v0v0v0z" />
<glyph horiz-adv-x="1247" d="M0 0v0v0v0v0v0v0v0v0zM0 0v0v0v0v0v0v0v0v0z" />
<glyph horiz-adv-x="1008" d="M0 0v0v0v0v0v0v0v0v0v0v0v0z" />
<glyph d="M0 0v0v0v0v0v0v0v0v0v0v0v0v0v0v0v0v0v0v0v0v0v0z" />
<glyph d="M0 0v0v0v0v0v0v0v0v0v0v0v0v0v0v0v0v0v0v0v0v0v0v0v0v0v0v0v0z" />
<glyph d="M0 0v0v0v0v0v0v0v0v0v0v0v0zM0 0v0v0v0v0v0v0v0v0z" />
<glyph d="M0 0v0v0v0v0v0v0v0v0v0v0v0v0v0v0v0v0v0v0v0v0z" />
<glyph d="M0 0v0v0v0v0v0v0v0v0v0v0v0v0v0v0v0v0v0zM0 0v0v0v0v0v0v0v0v0z" />
<glyph d="M0 0v0v0v0v0v0v0v0z" />
<glyph d="M0 0v0v0v0v0v0v0v0v0v0v0v0v0v0v0v0v0zM0 0v0v0v0v0v0v0v0zM0 0v0v0v0v0v0v0v0v0z" />
<glyph d="M0 0v0v0v0v0v0v0v0v0v0v0v0v0v0v0v0v0v0v0zM0 0v0v0v0v0v0v0v0v0z" />
<glyph horiz-adv-x="1296" d="M0 0v0v0v0v0v0v0v0v0zM0 0v0v0v0v0v0v0v0v0v0v0v0v0v0v0v0v0v0v0v0z" />
<glyph horiz-adv-x="1296" d="M0 0v0v0v0v0v0v0v0v0zM0 0v0v0v0v0v0v0v0v0v0v0v0v0v0v0v0v0v0v0v0zM0 0v0v0v0v0v0v0v0v0v0v0z" />
<glyph horiz-adv-x="1296" d="M0 0v0v0v0v0v0v0v0v0zM0 0v0v0v0v0v0v0v0v0v0v0v0v0v0v0v0v0v0v0v0zM0 0v0v0v0v0v0v0v0v0v0v0z" />
<glyph horiz-adv-x="1296" d="M0 0v0v0v0v0v0v0v0v0zM0 0v0v0v0v0v0v0v0v0v0v0v0v0v0v0v0v0v0v0v0zM0 0v0v0v0v0v0z" />
<glyph horiz-adv-x="1296" d="M0 0v0v0v0v0v0v0v0v0zM0 0v0v0v0v0v0v0v0v0v0v0v0v0v0v0v0v0v0v0v0zM0 0v0v0v0v0v0v0v0z" />
</font>
</defs>
</svg>
